<svg width="174" height="186" viewBox="0 0 174 186" fill="none" xmlns="http://www.w3.org/2000/svg">
<g clip-path="url(#clip0_16_1731)">
<path d="M35.1361 107.185C36.9652 117.229 39.7186 126.196 43.3962 134.085C46.9965 141.788 51.461 148.469 56.7898 154.13C65.673 163.538 74.8371 167.861 84.282 167.099C85.4735 167.001 86.6628 166.818 87.8496 166.55L104.587 164.185C106.564 163.996 108.557 163.594 110.567 162.979C112.369 162.411 114.093 161.69 115.738 160.817C124.833 156.044 131.794 146.634 136.622 132.587C142.326 115.981 143.376 97.7556 139.773 77.9122C136.151 58.0614 128.932 42.4016 118.116 30.9325C108.981 21.2628 99.5346 16.9755 89.7763 18.0704C89.2151 18.1323 88.6632 18.2145 88.1207 18.3169L69.7667 20.959C69.4295 20.9914 69.0837 21.0319 68.7293 21.0805C67.2737 21.3167 65.8047 21.6658 64.3221 22.1277C52.657 25.7493 43.9708 35.8682 38.2635 52.4845C35.9436 59.2678 34.3926 66.3239 33.6103 73.6528C32.4821 84.2647 32.9907 95.4421 35.136 107.185L35.1361 107.185L35.1361 107.185Z" fill="#E7E8E9"/>
<path d="M58.2933 49.5867C55.7869 56.9068 54.183 64.5324 53.4817 72.4635C52.576 82.5629 53.1306 93.174 55.1456 104.297C58.1028 120.412 63.4222 133.754 71.1039 144.323C72.8813 146.775 74.7816 149.076 76.8049 151.226C83.0813 157.876 89.4924 161.985 96.0381 163.551C98.8597 164.234 101.709 164.446 104.587 164.185C106.564 163.996 108.557 163.594 110.567 162.979C112.369 162.411 114.093 161.69 115.738 160.817C124.833 156.044 131.794 146.634 136.622 132.587C142.326 115.981 143.376 97.7556 139.773 77.9122C136.151 58.0614 128.932 42.4015 118.116 30.9325C108.981 21.2628 99.5347 16.9755 89.7763 18.0704C89.2151 18.1323 88.6633 18.2145 88.1208 18.3169C86.8622 18.5362 85.6059 18.8405 84.352 19.2299C82.4491 19.8281 80.624 20.5954 78.8769 21.5318C69.934 26.35 63.0728 35.7016 58.2934 49.5867L58.2933 49.5867ZM83.3255 26.1713C83.5187 26.0653 83.7183 25.9651 83.9242 25.8708C85.1357 25.264 86.3884 24.7564 87.6821 24.348C88.6913 24.059 89.7054 23.8335 90.7244 23.6715C91.1488 23.6151 91.5882 23.5643 92.0424 23.519C93.4836 23.3886 94.916 23.4131 96.3395 23.5923C98.1969 23.8211 100.036 24.3099 101.856 25.0587C106.202 26.8439 110.491 30.0894 114.724 34.7952C123.543 44.6288 129.743 58.1226 133.325 75.2766C137.02 92.9777 136.921 109.563 133.029 125.032C132.621 126.621 132.184 128.142 131.717 129.596C131.309 130.949 130.871 132.246 130.402 133.486C127.049 142.614 122.459 149.136 116.631 153.052C115.26 153.993 113.803 154.778 112.263 155.409C110.573 156.132 108.873 156.62 107.163 156.874C104.688 157.295 102.218 157.212 99.7506 156.626C99.2941 156.543 98.8397 156.437 98.3874 156.307C98.0086 156.201 97.6329 156.079 97.2603 155.941C97.1468 155.899 97.0401 155.854 96.94 155.806C94.4019 154.868 91.8802 153.431 89.3751 151.496C87.1502 149.772 84.9394 147.659 82.7426 145.157C80.9487 143.114 79.2601 140.909 77.6769 138.54C70.8721 128.396 66.1814 115.6 63.6048 100.152C61.8997 89.7275 61.4613 79.8663 62.2898 70.5685C62.9181 63.4183 64.3073 56.5885 66.4573 50.0791C67.9867 45.4551 69.7606 41.4321 71.7791 38.0101C75.0023 32.5392 78.8511 28.5929 83.3256 26.1713L83.3256 26.1713L83.3255 26.1713Z" fill="white"/>
<path opacity="0.7" d="M71.7791 38.0101C69.7606 41.4322 67.9867 45.4552 66.4573 50.0791C64.3073 56.5885 62.9181 63.4183 62.2898 70.5686C61.4613 79.8663 61.8997 89.7275 63.6048 100.152C66.1814 115.6 70.8721 128.396 77.6769 138.54C79.2601 140.909 80.9487 143.114 82.7426 145.157C84.9394 147.659 87.1502 149.772 89.3751 151.496C91.2758 152.782 93.1853 153.779 95.1038 154.488C95.2186 154.541 95.3254 154.587 95.4241 154.623C95.7993 154.762 96.17 154.882 96.5363 154.984C98.3691 155.246 100.203 155.216 102.037 154.896C103.729 154.657 110.035 152.079 111.372 151.159C116.659 147.622 120.911 141.911 124.128 134.029L71.7791 38.0101L71.7791 38.0101Z" fill="#DDDDDD"/>
<path d="M83.9242 25.8708C84.5478 25.6129 85.1826 25.3818 85.8284 25.1777C86.8329 24.8869 87.8353 24.6627 88.8356 24.505C89.2664 24.4623 89.699 24.4146 90.1334 24.3619C91.5588 24.2379 92.9795 24.2636 94.3955 24.4391C95.1541 24.6633 95.9148 24.9276 96.6776 25.2319C100.963 26.9952 105.196 30.1972 109.375 34.838C118.08 44.5172 124.208 57.7939 127.761 74.6681C131.426 92.0888 131.344 108.4 127.516 123.601C127.117 125.17 126.689 126.667 126.232 128.091C125.83 129.424 125.399 130.701 124.938 131.921C124.674 132.64 124.404 133.342 124.128 134.029C120.911 141.912 116.659 147.622 111.372 151.159C110.035 152.079 108.596 152.849 107.055 153.468C105.402 154.181 103.729 154.657 102.037 154.896C100.203 155.216 98.369 155.246 96.5363 154.984C96.17 154.882 95.7992 154.762 95.4241 154.623C95.3254 154.587 95.2186 154.542 95.1037 154.488C93.1853 153.779 91.2757 152.782 89.3751 151.496C91.8802 153.431 94.4019 154.868 96.94 155.806C97.04 155.854 97.1468 155.899 97.2603 155.941C97.6329 156.079 98.0086 156.201 98.3874 156.307C100.244 156.562 102.101 156.53 103.958 156.212C105.677 155.96 107.377 155.472 109.057 154.747C110.612 154.121 112.068 153.335 113.426 152.389C119.264 148.477 123.86 141.957 127.212 132.829C127.68 131.588 128.118 130.292 128.527 128.939C128.995 127.486 129.428 125.962 129.824 124.37C133.727 108.904 133.831 92.321 130.134 74.6195C126.551 57.4645 120.35 43.9707 111.534 34.1381C107.3 29.4322 103.011 26.1867 98.6661 24.4016C97.8951 24.0844 97.1196 23.8147 96.3395 23.5923C94.9159 23.4131 93.4836 23.3887 92.0424 23.5191C91.5881 23.5644 91.1488 23.6152 90.7243 23.6715C89.7054 23.8335 88.6913 24.059 87.6821 24.348C86.3883 24.7564 85.1357 25.264 83.9242 25.8708L83.9242 25.8708Z" fill="#7F7F7F"/>
<path d="M71.5428 37.6682L124.296 134.196C124.573 133.509 124.843 132.807 125.107 132.088C125.568 130.868 125.999 129.591 126.4 128.258C126.857 126.834 127.286 125.337 127.684 123.768C131.513 108.567 131.595 92.2557 127.929 74.835C124.377 57.9608 118.248 44.6841 109.543 35.0049C105.364 30.3641 101.653 26.4953 97.3674 24.7321C96.6046 24.4277 95.8439 24.1635 95.0853 23.9392C93.6693 23.7638 91.5334 24.1106 90.108 24.2347C89.6736 24.2873 89.241 24.335 88.8102 24.3778C87.8099 24.5354 85.9401 25.2868 84.9356 25.5776C83.8743 25.8106 80.92 27.5073 79.9031 28.324C77.2157 30.4823 73.9395 33.6002 71.5428 37.6682L71.5428 37.6682Z" fill="url(#paint0_linear_16_1731)"/>
<path d="M52.6222 137.494C47.8549 128.574 44.3937 118.134 42.2384 106.175C40.1138 94.4056 39.6247 83.1905 40.7711 72.5293C41.557 65.1904 43.1172 58.1096 45.4516 51.2869C51.1771 34.6212 59.8815 24.4529 71.5649 20.782C71.753 20.7281 71.9429 20.6693 72.1347 20.6055L69.7667 20.9589C69.4294 20.9914 69.0836 21.0319 68.7292 21.0804C67.2737 21.3167 65.8046 21.6658 64.3221 22.1277C52.6569 25.7493 43.9707 35.8682 38.2634 52.4845C35.9435 59.2678 34.3925 66.3239 33.6102 73.6528C32.482 84.2647 32.9906 95.4421 35.136 107.185C36.9651 117.229 39.7185 126.196 43.3961 134.085C46.9964 141.788 51.4609 148.469 56.7897 154.13C65.6729 163.538 74.837 167.861 84.2819 167.099C85.4734 167.001 86.6626 166.818 87.8495 166.55L89.424 166.341C80.6464 166.418 72.1126 162.058 63.8227 153.262C59.5222 148.677 55.7887 143.421 52.6221 137.494L52.6221 137.494L52.6222 137.494Z" fill="white"/>
<path d="M47.1716 105.389C49.6125 118.857 53.6951 130.396 59.4194 140.006C62.1684 144.6 65.2873 148.754 68.7762 152.467C77.0141 161.222 85.7542 165.585 94.9964 165.556L104.587 164.185C101.709 164.446 98.8595 164.234 96.038 163.551C89.4923 161.985 83.0812 157.876 76.8047 151.226C74.7815 149.076 72.8811 146.775 71.1037 144.323C63.422 133.755 58.1026 120.412 55.1455 104.297C53.1305 93.174 52.5758 82.5629 53.4816 72.4635C54.1829 64.5324 55.7867 56.9068 58.2932 49.5867C63.0726 35.7017 69.9338 26.35 78.8767 21.5318C80.6238 20.5954 82.4489 19.8281 84.3518 19.2299C85.6057 18.8406 86.862 18.5362 88.1206 18.3169L76.5939 19.9645C76.5668 19.977 76.5349 19.9876 76.498 19.9964C64.8282 23.6611 56.1305 33.8263 50.405 50.492C48.0509 57.3074 46.4907 64.3882 45.7245 71.7343C44.5781 82.3956 45.0605 93.6138 47.1716 105.389L47.1716 105.389L47.1716 105.389Z" fill="#E7E8E9"/>
<path d="M59.4195 140.006C53.6952 130.396 49.6126 118.857 47.1717 105.389C45.0606 93.6138 44.5783 82.3956 45.7247 71.7343C46.4908 64.3882 48.051 57.3074 50.4051 50.492C56.1307 33.8263 64.8283 23.6611 76.4981 19.9964C76.535 19.9876 76.567 19.977 76.594 19.9646L72.1347 20.6055C71.9429 20.6693 71.753 20.7281 71.5649 20.782C59.8816 24.4529 51.1771 34.6213 45.4516 51.2869C43.1172 58.1096 41.5571 65.1904 40.7711 72.5293C39.6248 83.1905 40.1139 94.4056 42.2385 106.175C44.3937 118.134 47.8549 128.574 52.6222 137.494C55.7887 143.421 59.5223 148.677 63.8228 153.262C72.1127 162.058 80.6465 166.418 89.4241 166.341L94.9965 165.556C85.7543 165.585 77.0142 161.222 68.7763 152.467C65.2874 148.754 62.1684 144.6 59.4195 140.006L59.4195 140.006Z" fill="url(#paint1_linear_16_1731)"/>
<path d="M108.22 78.8733C107.899 78.4941 107.508 78.3419 107.096 78.4837C106.451 78.7069 105.813 78.9538 105.186 79.2853C104.223 79.805 103.337 79.472 102.454 78.43C102.355 78.3131 102.256 78.1872 102.157 78.0526C95.1967 68.6209 88.2197 59.2332 81.2592 49.8015C81.2238 49.7537 81.1897 49.7104 81.1566 49.6713C80.8359 49.2927 80.6157 49.3235 80.3449 49.8099C79.5553 51.2359 78.7168 52.5725 77.9468 54.0376C77.3623 55.1579 76.8527 56.4301 76.281 57.6926C76.4669 57.9439 76.5616 58.0714 76.6594 58.2028C83.3509 67.2296 90.0374 76.2585 96.7255 85.2973C96.7666 85.3525 96.8077 85.4044 96.8489 85.453C97.2918 85.9758 97.742 86.118 98.2257 85.9408C99.1473 85.6074 100.072 85.2779 101 84.9839C101.472 84.8357 101.893 84.9827 102.231 85.3818C102.634 85.8584 102.92 86.6944 103.036 87.8158C103.207 89.424 103.369 91.0365 103.509 92.6537C103.632 94.0932 104.014 95.14 104.649 95.9923C109.997 103.188 115.34 110.408 120.684 117.622C120.836 117.825 120.986 118.034 121.198 118.316C122.119 114.854 122.765 111.29 123.224 107.56C123.316 106.834 123.236 106.462 122.892 106C118.806 100.517 114.729 94.9982 110.643 89.4994C110.015 88.6548 109.616 87.6045 109.49 86.1612C109.346 84.4827 109.178 82.7991 109.001 81.1297C108.897 80.1237 108.609 79.3322 108.22 78.8733ZM93.3353 89.2442C92.9948 88.8421 92.574 88.6997 92.1157 88.8752C91.4626 89.1284 90.8061 89.3936 90.1627 89.706C89.2699 90.1477 88.4462 89.839 87.6306 88.8762C87.5414 88.7709 87.4523 88.6579 87.3632 88.537C82.7713 82.2984 78.1662 76.1077 73.5661 69.8991C73.4029 69.6748 73.2366 69.4466 73.0751 69.2321C73.0274 69.3426 72.9995 69.3811 72.9863 69.4291C72.2247 73.2701 71.7603 77.2874 71.5704 81.4858C71.5602 81.7119 71.6739 82.0844 71.7832 82.2372C75.1142 86.757 78.4484 91.2807 81.8057 95.7204C81.8212 95.7408 81.8371 95.7606 81.8533 95.7797C82.2026 96.1921 82.7141 96.3153 83.1066 96.2399C84.0786 96.0533 85.0265 95.624 85.9888 95.3309C86.4666 95.1839 86.8823 95.3233 87.2152 95.7162C87.6257 96.2009 87.9103 97.0709 88.0308 98.2655C88.1896 99.8425 88.3598 101.425 88.4908 103.009C88.609 104.45 89.001 105.509 89.6323 106.357C97.0106 116.298 104.389 126.255 111.757 136.231C111.782 136.265 111.806 136.295 111.829 136.323C112.084 136.624 112.269 136.601 112.49 136.302C113.556 134.814 114.645 133.384 115.69 131.846C116.259 131.002 116.757 129.977 117.329 128.962C117.09 128.639 116.925 128.421 116.759 128.193C109.759 118.747 102.764 109.298 95.7642 99.8677C95.1133 98.9961 94.7213 97.9219 94.5999 96.4447C94.4657 94.8254 94.2956 93.2112 94.1287 91.6008C94.0175 90.527 93.7305 89.7108 93.3353 89.2441L93.3353 89.2442ZM77.87 97.6444C77.5279 97.2404 77.1056 97.0969 76.6537 97.2766C76.1053 97.4947 75.557 97.6811 75.0232 97.972C74.0979 98.4713 73.1855 98.4939 72.1736 97.2994C72.1254 97.2425 72.077 97.1829 72.0284 97.1204C73.986 112.866 78.3809 125.216 85.4867 133.946C85.6489 134.145 85.8121 134.342 85.9747 134.534C92.0086 141.657 98.3534 143.86 104.885 141.72C104.893 141.642 104.903 141.559 104.908 141.477C104.758 141.268 104.603 141.062 104.448 140.855C96.3994 129.988 88.3508 119.12 80.294 108.267C79.648 107.394 79.251 106.322 79.1297 104.844C78.9956 103.193 78.8287 101.551 78.6488 99.9098C78.5391 98.8845 78.2554 98.0994 77.87 97.6444L77.87 97.6444ZM109.264 48.3504C102.304 40.134 95.0808 38.4806 87.7413 42.3835C87.7297 42.473 87.7196 42.5723 87.708 42.6618C87.8434 42.8455 87.9755 43.0253 88.1109 43.2089C95.9083 53.7319 103.711 64.2527 111.503 74.7936C111.554 74.8619 111.604 74.9257 111.655 74.9852C112.167 75.5898 112.673 75.7476 113.232 75.5326C114.118 75.1885 115.016 74.8916 115.913 74.6006C116.362 74.455 116.773 74.6084 117.109 75.0041C117.515 75.4834 117.809 76.318 117.921 77.4076C118.101 79.1442 118.266 80.8873 118.432 82.6244C118.529 83.6589 118.784 84.5713 119.229 85.1843C120.663 87.1707 122.11 89.0932 123.553 91.0436C123.601 90.9807 123.65 90.9275 123.698 90.8646C122.399 73.5707 118.068 59.5095 110.215 49.5171C109.899 49.1147 109.581 48.7253 109.264 48.3504" fill="black"/>
<path d="M108.918 78.4978C108.597 78.1185 108.206 77.9664 107.794 78.1081C107.149 78.3314 106.511 78.5782 105.884 78.9098C104.921 79.4294 104.035 79.0965 103.152 78.0544C103.053 77.9375 102.954 77.8116 102.855 77.6771C95.8947 68.2453 88.9177 58.8577 81.9572 49.4259C81.9218 49.3782 81.8877 49.3348 81.8546 49.2957C81.5339 48.9172 81.3137 48.9479 81.0429 49.4343C80.2533 50.8604 79.4148 52.197 78.6448 53.662C78.0603 54.7823 77.5507 56.0546 76.979 57.317C77.1649 57.5683 77.2596 57.6959 77.3574 57.8273C84.0489 66.8541 90.7354 75.883 97.4235 84.9217C97.4646 84.977 97.5057 85.0288 97.5469 85.0775C97.9898 85.6003 98.44 85.7425 98.9237 85.5653C99.8453 85.2319 100.77 84.9024 101.698 84.6084C102.17 84.4601 102.591 84.6072 102.929 85.0063C103.332 85.4829 103.618 86.3189 103.734 87.4402C103.905 89.0484 104.067 90.6609 104.207 92.2781C104.33 93.7176 104.712 94.7644 105.347 95.6168C110.695 102.813 116.038 110.032 121.382 117.246C121.534 117.449 121.684 117.658 121.896 117.94C122.817 114.478 123.463 110.914 123.922 107.184C124.014 106.458 123.934 106.087 123.59 105.625C119.504 100.142 115.427 94.6227 111.341 89.1238C110.713 88.2792 110.314 87.229 110.188 85.7856C110.044 84.1072 109.876 82.4236 109.699 80.7542C109.595 79.7482 109.307 78.9567 108.918 78.4978ZM94.0333 88.8686C93.6928 88.4666 93.272 88.3241 92.8137 88.4996C92.1606 88.7529 91.5041 89.0181 90.8607 89.3304C89.9679 89.7722 89.1442 89.4635 88.3286 88.5007C88.2394 88.3953 88.1503 88.2823 88.0612 88.1614C83.4693 81.9228 78.8642 75.7322 74.264 69.5235C74.1009 69.2992 73.9345 69.071 73.7731 68.8566C73.7254 68.9671 73.6975 69.0056 73.6843 69.0535C72.9227 72.8946 72.4583 76.9119 72.2684 81.1103C72.2582 81.3364 72.3719 81.7089 72.4812 81.8617C75.8122 86.3815 79.1464 90.9051 82.5037 95.3449C82.5192 95.3653 82.5351 95.385 82.5513 95.4042C82.9006 95.8165 83.4121 95.9397 83.8046 95.8643C84.7766 95.6778 85.7245 95.2485 86.6868 94.9553C87.1646 94.8084 87.5803 94.9477 87.9132 95.3407C88.3237 95.8253 88.6083 96.6954 88.7288 97.89C88.8876 99.4669 89.0578 101.049 89.1888 102.633C89.307 104.075 89.699 105.133 90.3303 105.982C97.7086 115.922 105.087 125.879 112.455 135.856C112.48 135.889 112.504 135.92 112.527 135.947C112.782 136.248 112.967 136.226 113.188 135.927C114.254 134.438 115.343 133.008 116.388 131.471C116.957 130.626 117.455 129.602 118.027 128.587C117.788 128.264 117.623 128.046 117.456 127.817C110.457 118.371 103.462 108.923 96.4622 99.4922C95.8113 98.6206 95.4193 97.5464 95.2979 96.0692C95.1637 94.4498 94.9936 92.8356 94.8267 91.2253C94.7154 90.1514 94.4285 89.3352 94.0333 88.8686L94.0333 88.8686ZM78.568 97.2689C78.2259 96.8649 77.8036 96.7213 77.3516 96.9011C76.8033 97.1192 76.255 97.3056 75.7212 97.5965C74.7959 98.0958 73.8835 98.1183 72.8716 96.9238C72.8234 96.8669 72.775 96.8073 72.7264 96.7448C74.684 112.49 79.0789 124.84 86.1847 133.57C86.3469 133.769 86.5101 133.966 86.6727 134.158C92.7066 141.281 99.0514 143.484 105.583 141.344C105.591 141.267 105.601 141.183 105.606 141.102C105.456 140.893 105.301 140.686 105.146 140.479C97.0974 129.612 89.0488 118.745 80.992 107.892C80.346 107.018 79.949 105.946 79.8277 104.469C79.6936 102.818 79.5267 101.176 79.3468 99.5343C79.2371 98.509 78.9534 97.7238 78.568 97.2689L78.568 97.2689ZM109.962 47.9748C103.002 39.7584 95.7788 38.105 88.4393 42.008C88.4277 42.0974 88.4176 42.1968 88.406 42.2863C88.5414 42.4699 88.6735 42.6497 88.8089 42.8334C96.6063 53.3563 104.409 63.8772 112.201 74.4181C112.252 74.4863 112.302 74.5501 112.353 74.6097C112.865 75.2143 113.371 75.372 113.93 75.1571C114.816 74.813 115.714 74.516 116.611 74.225C117.06 74.0794 117.471 74.2328 117.807 74.6286C118.213 75.1078 118.507 75.9425 118.619 77.032C118.799 78.7687 118.964 80.5118 119.13 82.2489C119.227 83.2833 119.482 84.1957 119.927 84.8088C121.361 86.7951 122.808 88.7177 124.251 90.6681C124.299 90.6051 124.348 90.552 124.396 90.489C123.097 73.1951 118.766 59.134 110.913 49.1415C110.597 48.7392 110.279 48.3498 109.962 47.9748" fill="url(#paint2_linear_16_1731)"/>
</g>
<defs>
<linearGradient id="paint0_linear_16_1731" x1="145.498" y1="102.48" x2="64.4029" y2="48.2688" gradientUnits="userSpaceOnUse">
<stop offset="0.0002" stop-color="#E7E8E9" stop-opacity="0.5"/>
<stop offset="0.13914" stop-color="#E7E8E9" stop-opacity="0.52037"/>
<stop offset="0.3192" stop-color="#EAEBEC" stop-opacity="0.57843"/>
<stop offset="0.52191" stop-color="#EFF0F0" stop-opacity="0.67417"/>
<stop offset="0.74113" stop-color="#F5F6F6" stop-opacity="0.80766"/>
<stop offset="0.97131" stop-color="#FDFDFD" stop-opacity="0.97713"/>
<stop offset="0.99976" stop-color="white"/>
</linearGradient>
<linearGradient id="paint1_linear_16_1731" x1="69.5077" y1="145.797" x2="57.2564" y2="29.7258" gradientUnits="userSpaceOnUse">
<stop stop-color="#77F8DC"/>
<stop offset="0.11899" stop-color="#7CF8D4"/>
<stop offset="0.29929" stop-color="#8CF9BF"/>
<stop offset="0.51852" stop-color="#A6FA9D"/>
<stop offset="0.76586" stop-color="#C9FC6E"/>
<stop offset="1" stop-color="#F0FE3B"/>
</linearGradient>
<linearGradient id="paint2_linear_16_1731" x1="75.6421" y1="48.8924" x2="120.935" y2="133.085" gradientUnits="userSpaceOnUse">
<stop stop-color="#F0FE3B"/>
<stop offset="0.43664" stop-color="#B6FB87"/>
<stop offset="0.81887" stop-color="#88F8C4"/>
<stop offset="1" stop-color="#77F8DC"/>
</linearGradient>
<clipPath id="clip0_16_1731">
<rect width="147.072" height="117.246" fill="white" transform="translate(104.242) rotate(61.7212)"/>
</clipPath>
</defs>
</svg>
