<svg width="1440" height="2150" viewBox="0 0 1440 2150" fill="none" xmlns="http://www.w3.org/2000/svg">
<g opacity="0.44">
<path d="M1455.99 778.782L726.989 604.412" stroke="#9DC094" stroke-width="2"/>
<path d="M1455.48 794.513L726.989 604.413" stroke="#9DC094" stroke-width="2"/>
<path d="M1455.99 813.443L726.989 604.413" stroke="#9DC094" stroke-width="2"/>
<path d="M1455.99 836.906L726.989 604.413" stroke="#9DC094" stroke-width="2"/>
<path d="M1455.99 866.234L726.989 604.413" stroke="#9DC094" stroke-width="2"/>
<path d="M1455.99 903.561L726.989 604.413" stroke="#9DC094" stroke-width="2"/>
<path d="M1455.99 953.686L726.989 604.413" stroke="#9DC094" stroke-width="2"/>
<path d="M1455.99 1024.07L726.989 604.413" stroke="#9DC094" stroke-width="2"/>
<path d="M1363.1 1063L726.989 604.413" stroke="#9DC094" stroke-width="2"/>
<path d="M1201.55 1063L726.989 604.413" stroke="#9DC094" stroke-width="2"/>
<path d="M1041 1063L726.989 604.413" stroke="#9DC094" stroke-width="2"/>
<path d="M880.463 1063L726.989 604.413" stroke="#9DC094" stroke-width="2"/>
<path d="M720.931 1063L726.989 604.413" stroke="#9DC094" stroke-width="2"/>
<path d="M-2.01086 778.783L726.989 604.413" stroke="#9DC094" stroke-width="2"/>
<path d="M-1.50623 794.513L726.989 604.413" stroke="#9DC094" stroke-width="2"/>
<path d="M-2.01086 813.443L726.989 604.413" stroke="#9DC094" stroke-width="2"/>
<path d="M-2.01086 836.906L726.989 604.413" stroke="#9DC094" stroke-width="2"/>
<path d="M-2.01086 866.234L726.989 604.413" stroke="#9DC094" stroke-width="2"/>
<path d="M-2.01086 903.561L726.989 604.413" stroke="#9DC094" stroke-width="2"/>
<path d="M-2.01086 953.686L726.989 604.413" stroke="#9DC094" stroke-width="2"/>
<path d="M-2.01086 1024.07L726.989 604.413" stroke="#9DC094" stroke-width="2"/>
<path d="M90.8809 1063L726.989 604.413" stroke="#9DC094" stroke-width="2"/>
<path d="M252.433 1063L726.989 604.413" stroke="#9DC094" stroke-width="2"/>
<path d="M412.974 1063L726.989 604.413" stroke="#9DC094" stroke-width="2"/>
<path d="M573.515 1063L726.989 604.413" stroke="#9DC094" stroke-width="2"/>
<path d="M1455.99 1007.01L2.02792 1007.01" stroke="#9DC094" stroke-width="2"/>
<path d="M1455.99 962.751L2.02792 962.751" stroke="#9DC094" stroke-width="2"/>
<path d="M1455.99 926.49L2.02792 926.49" stroke="#9DC094" stroke-width="2"/>
<path d="M1455.99 897.695L2.02792 897.695" stroke="#9DC094" stroke-width="2"/>
<path d="M1455.99 873.167L2.02792 873.167" stroke="#9DC094" stroke-width="2"/>
<path d="M1455.99 852.903L2.02792 852.903" stroke="#9DC094" stroke-width="2"/>
<path d="M1455.99 835.306L2.02792 835.306" stroke="#9DC094" stroke-width="2"/>
<path d="M1455.99 819.842L2.02792 819.842" stroke="#9DC094" stroke-width="2"/>
<path d="M1455.99 805.977L2.02787 805.977" stroke="#9DC094" stroke-width="2"/>
<path d="M1455.99 794.246L2.02785 794.246" stroke="#9DC094" stroke-width="2"/>
<path d="M1455.99 784.114L2.02785 784.114" stroke="#9DC094" stroke-width="2"/>
<path d="M1455.99 774.516L2.02785 774.516" stroke="#9DC094" stroke-width="2"/>
<rect x="1442" y="1024" width="1442" height="1024" transform="rotate(180 1442 1024)" fill="url(#paint0_linear_1908_324)"/>
<rect x="-14" y="898" width="1519" height="196" fill="url(#paint1_linear_1908_324)"/>
</g>
<path opacity="0.3" fill-rule="evenodd" clip-rule="evenodd" d="M66.1453 345.655C150.437 330.695 233.161 383.305 254.355 467.615C275.55 551.926 227.539 637.401 146.193 664.08L66.1453 345.655ZM64.9265 345.876L145.014 664.461C141.685 665.526 138.302 666.492 134.865 667.356C131.023 668.322 127.178 669.144 123.336 669.826L43.2886 351.401C46.9961 350.185 50.7728 349.091 54.6153 348.125C58.0518 347.261 61.4902 346.512 64.9265 345.876ZM98.4306 672.316C105.886 672.142 113.401 671.457 120.934 670.234L40.9793 352.177C33.7639 354.661 26.8176 357.611 20.1662 360.983L98.4306 672.316ZM15.7425 363.312L93.4317 672.357C85.4868 672.299 77.6216 671.662 69.8883 670.478L-4.11369 376.101C2.1402 371.4 8.76939 367.12 15.7425 363.312ZM37.107 661.917C45.1773 664.942 53.5066 667.343 62.0224 669.076L-10.3816 381.056C-17.0654 386.61 -23.2693 392.664 -28.9497 399.146L37.107 661.917ZM-36.6027 408.554L25.9149 657.246C16.3927 652.855 7.30626 647.568 -1.21251 641.461L-53.0407 435.29C-48.4223 425.882 -42.9166 416.925 -36.6027 408.554ZM-64.8751 547.865C-72.9755 515.642 -70.9668 483.249 -60.8516 454.033L-16.958 628.64C-39.6865 607.681 -56.7747 580.088 -64.8751 547.865Z" fill="url(#paint2_radial_1908_324)"/>
<path opacity="0.3" fill-rule="evenodd" clip-rule="evenodd" d="M1215.67 1872.82C1140.89 1822.71 1116.55 1722.55 1161.94 1643.21C1207.34 1563.87 1306.03 1534.09 1387.12 1573.17L1215.67 1872.82ZM1216.75 1873.54L1388.29 1573.74C1391.59 1575.36 1394.86 1577.09 1398.09 1578.94C1401.71 1581.01 1405.22 1583.19 1408.63 1585.48L1237.18 1885.13C1233.48 1883.35 1229.82 1881.42 1226.21 1879.35C1222.97 1877.5 1219.82 1875.57 1216.75 1873.54ZM1429.32 1601.74C1423.54 1596.44 1417.35 1591.48 1410.75 1586.92L1239.49 1886.22C1246.77 1889.6 1254.19 1892.43 1261.68 1894.72L1429.32 1601.74ZM1266.73 1896.18L1433.14 1605.36C1439.11 1611.19 1444.61 1617.41 1449.61 1623.94L1291.1 1900.96C1282.94 1899.97 1274.79 1898.38 1266.73 1896.18ZM1468.21 1654.32C1464.3 1646.15 1459.74 1638.26 1454.55 1630.74L1299.47 1901.78C1308.58 1902.44 1317.69 1902.38 1326.72 1901.6L1468.21 1654.32ZM1339.38 1900.05L1473.29 1666.02C1477.3 1676.29 1480.33 1686.92 1482.34 1697.76L1371.33 1891.77C1360.97 1895.54 1350.27 1898.31 1339.38 1900.05ZM1462.35 1815.09C1445 1845.41 1419.87 1868.5 1390.91 1883.26L1484.92 1718.95C1486.87 1751.4 1479.7 1784.77 1462.35 1815.09Z" fill="url(#paint3_radial_1908_324)"/>
<path opacity="0.3" fill-rule="evenodd" clip-rule="evenodd" d="M1419.08 644.745C1331.03 689.409 1222.15 658.964 1170.6 572.979C1119.05 486.994 1143.49 376.61 1224.38 319.995L1419.08 644.745ZM1420.35 644.094L1225.55 319.181C1228.87 316.894 1232.28 314.698 1235.79 312.596C1239.7 310.247 1243.67 308.055 1247.69 306.02L1442.39 630.769C1438.7 633.35 1434.9 635.818 1430.98 638.168C1427.47 640.269 1423.93 642.244 1420.35 644.094ZM1274.35 294.953C1266.17 297.635 1258.11 300.901 1250.2 304.767L1444.68 629.141C1451.81 623.989 1458.49 618.413 1464.71 612.47L1274.35 294.953ZM1468.82 608.422L1279.85 293.239C1288.64 290.649 1297.53 288.725 1306.47 287.45L1486.46 587.674C1481.13 594.951 1475.24 601.89 1468.82 608.422ZM1345.51 285.952C1335.59 285.308 1325.59 285.44 1315.62 286.371L1491.73 580.112C1497.25 571.749 1502.07 562.994 1506.18 553.943L1345.51 285.952ZM1511.49 541.002L1359.42 287.37C1371.4 289.036 1383.2 291.839 1394.64 295.734L1520.7 505.999C1518.75 517.928 1515.66 529.652 1511.49 541.002ZM1496.17 377.786C1515.87 410.649 1524.47 447.075 1523.06 482.702L1416.3 304.628C1448.39 320.173 1476.47 344.923 1496.17 377.786Z" fill="url(#paint4_radial_1908_324)"/>
<path opacity="0.3" fill-rule="evenodd" clip-rule="evenodd" d="M-17.1561 1951.85C6.66279 1894.14 71.4366 1863.86 131.607 1883.85C191.778 1903.84 225.553 1966.86 210.097 2027.36L-17.1561 1951.85ZM-17.4977 1952.69L209.87 2028.23C209.221 2030.69 208.489 2033.15 207.675 2035.61C206.764 2038.35 205.763 2041.04 204.678 2043.67L-22.5758 1968.17C-21.8713 1965.41 -21.0647 1962.66 -20.1536 1959.91C-19.3387 1957.46 -18.4524 1955.05 -17.4977 1952.69ZM196.453 2059.97C199.267 2055.31 201.789 2050.42 203.988 2045.31L-23.003 1969.89C-24.3013 1975.3 -25.2079 1980.73 -25.739 1986.14L196.453 2059.97ZM-26.0396 1989.78L194.519 2063.06C191.371 2067.92 187.898 2072.51 184.14 2076.8L-25.9509 2007C-26.3926 2001.32 -26.4288 1995.56 -26.0396 1989.78ZM166.031 2093.62C171.053 2089.84 175.794 2085.65 180.196 2081.09L-25.3581 2012.8C-24.5597 2019.09 -23.2656 2025.28 -21.5035 2031.31L166.031 2093.62ZM-18.7138 2039.7L158.773 2098.67C152.341 2102.81 145.528 2106.33 138.434 2109.18L-8.70529 2060.29C-12.6842 2053.76 -16.0371 2046.87 -18.7138 2039.7ZM55.914 2111.67C32.9171 2104.03 13.7759 2090.11 -0.234791 2072.44L124.379 2113.84C102.58 2119.61 78.9109 2119.32 55.914 2111.67Z" fill="url(#paint5_radial_1908_324)"/>
<defs>
<linearGradient id="paint0_linear_1908_324" x1="2163" y1="1047.5" x2="2163" y2="1288" gradientUnits="userSpaceOnUse">
<stop stop-color="#0E0E1A" stop-opacity="0"/>
<stop offset="1" stop-color="#0E0E1A"/>
</linearGradient>
<linearGradient id="paint1_linear_1908_324" x1="745.5" y1="893.502" x2="745.5" y2="1094" gradientUnits="userSpaceOnUse">
<stop stop-color="#101029" stop-opacity="0.4"/>
<stop offset="0.512988" stop-color="#0E0E1A"/>
</linearGradient>
<radialGradient id="paint2_radial_1908_324" cx="0" cy="0" r="1" gradientUnits="userSpaceOnUse" gradientTransform="translate(-138.07 407.405) rotate(28.6205) scale(421.023)">
<stop stop-color="#FF39B0"/>
<stop offset="0.223324" stop-color="#7C1B6D"/>
<stop offset="1" stop-color="#191717"/>
</radialGradient>
<radialGradient id="paint3_radial_1908_324" cx="0" cy="0" r="1" gradientUnits="userSpaceOnUse" gradientTransform="translate(1415.43 1974.89) rotate(-107.492) scale(442.699)">
<stop stop-color="#FF39B0"/>
<stop offset="0.223324" stop-color="#7C1B6D"/>
<stop offset="1" stop-color="#191717"/>
</radialGradient>
<radialGradient id="paint4_radial_1908_324" cx="0" cy="0" r="1" gradientUnits="userSpaceOnUse" gradientTransform="translate(1623.87 508.383) rotate(-168.213) scale(485.537)">
<stop stop-color="#FF39B0"/>
<stop offset="0.223324" stop-color="#7C1B6D"/>
<stop offset="1" stop-color="#191717"/>
</radialGradient>
<radialGradient id="paint5_radial_1908_324" cx="0" cy="0" r="1" gradientUnits="userSpaceOnUse" gradientTransform="translate(-59.1713 2101.68) rotate(-28.8901) scale(307.071)">
<stop stop-color="#FF39B0"/>
<stop offset="0.223324" stop-color="#7C1B6D"/>
<stop offset="1" stop-color="#191717"/>
</radialGradient>
</defs>
</svg>
