<svg width="160" height="141" viewBox="0 0 160 141" fill="none" xmlns="http://www.w3.org/2000/svg">
<g clip-path="url(#clip0_16_1802)">
<path d="M104.236 126.421C94.2202 131.938 84.4874 135.887 75.0375 138.269C65.8035 140.587 56.846 141.429 48.1648 140.796C33.7169 139.722 23.487 134.804 17.4751 126.041C16.7185 124.935 16.0374 123.769 15.4317 122.546L5.65868 106.301C4.42657 104.446 3.36739 102.426 2.48109 100.241C1.7012 98.2699 1.1091 96.2592 0.704788 94.2089C-1.57567 82.9125 1.67819 70.1917 10.4663 56.0464C20.8587 39.3269 35.9446 25.5128 55.7241 14.6042C75.5238 3.70765 94.2252 -1.09123 111.828 0.207532C126.681 1.31611 137.079 6.50571 143.023 15.7764C143.366 16.3088 143.685 16.8474 143.979 17.3922L154.653 35.2413C154.863 35.5578 155.072 35.8876 155.281 36.2305C156.104 37.6649 156.839 39.191 157.485 40.8086C162.582 53.5276 159.931 68.252 149.533 84.9817C145.281 91.8025 140.249 98.1471 134.436 104.016C126.017 112.509 115.95 119.977 104.236 126.421L104.236 126.421Z" fill="#E7E8E9"/>
<path d="M137.897 65.4926C133.311 72.8558 127.821 79.6495 121.428 85.8736C113.297 93.8104 103.69 100.838 92.606 106.956C76.5202 115.788 61.174 120.601 46.5673 121.394C43.1819 121.582 39.8408 121.556 36.5439 121.316C26.3335 120.559 18.2357 117.885 12.2504 113.295C9.66302 111.322 7.46576 108.991 5.6586 106.301C4.4265 104.446 3.36731 102.426 2.48102 100.241C1.70113 98.2698 1.10902 96.2591 0.704712 94.2089C-1.57574 82.9124 1.6781 70.1916 10.4662 56.0464C20.8586 39.3268 35.9446 25.5127 55.724 14.6041C75.5237 3.70759 94.2251 -1.09129 111.828 0.207471C126.681 1.31605 137.079 6.50565 143.023 15.7763C143.366 16.3087 143.685 16.8473 143.979 17.3921C144.678 18.6431 145.301 19.9521 145.849 21.3194C146.674 23.3995 147.297 25.5315 147.718 27.7153C149.853 38.9113 146.579 51.5037 137.897 65.4925L137.897 65.4926ZM140.546 27.1261C140.501 26.8829 140.447 26.6383 140.384 26.3923C140.055 24.908 139.61 23.4582 139.051 22.0428C138.589 20.9596 138.068 19.9171 137.489 18.9153C137.238 18.5059 136.972 18.0875 136.69 17.6599C135.785 16.3129 134.752 15.0832 133.59 13.9707C132.079 12.5156 130.355 11.2606 128.418 10.2057C123.798 7.68627 117.948 6.24916 110.87 5.89438C96.0984 5.17653 79.9982 9.32947 62.5696 18.3532C44.5854 27.6648 30.2509 39.4896 19.5663 53.8275C18.4751 55.3069 17.4627 56.7643 16.5291 58.1998C15.6427 59.5125 14.8265 60.8118 14.0805 62.0979C8.5222 71.4776 6.10138 80.0902 6.81796 87.9357C6.96997 89.7953 7.31633 91.6192 7.85706 93.4074C8.42371 95.3893 9.20073 97.2147 10.1881 98.8836C11.5715 101.336 13.3893 103.428 15.6415 105.161C16.0355 105.5 16.4489 105.821 16.8815 106.122C17.2414 106.377 17.6128 106.618 17.9957 106.845C18.1123 106.914 18.2269 106.975 18.3394 107.028C20.9474 108.574 23.9769 109.752 27.428 110.563C30.4974 111.28 33.8945 111.709 37.6192 111.851C40.661 111.967 43.77 111.876 46.9461 111.577C60.5641 110.322 74.9915 105.349 90.2283 96.6583C100.487 90.7643 109.361 84.1662 116.851 76.864C122.617 71.2561 127.567 65.2126 131.701 58.7335C134.636 54.1292 136.877 49.7373 138.422 45.5579C140.896 38.8796 141.604 32.7356 140.546 27.1261V27.1261L140.546 27.1261Z" fill="white"/>
<path d="M138.422 45.558C136.877 49.7374 134.636 54.1292 131.701 58.7335C127.567 65.2127 122.617 71.2562 116.851 76.8641C109.361 84.1662 100.487 90.7643 90.2283 96.6584C74.9915 105.349 60.5641 110.322 46.9461 111.577C43.77 111.876 40.6611 111.967 37.6193 111.851C33.8945 111.709 30.4974 111.28 27.428 110.563C24.9684 109.819 22.7529 108.862 20.7817 107.694C20.6539 107.632 20.5394 107.571 20.4379 107.51C20.0524 107.282 19.6861 107.044 19.3389 106.797C17.8163 105.387 16.5462 103.77 15.5285 101.946C14.5403 100.304 12.3238 92.9893 12.1776 91.1744C11.5145 84.0679 13.4693 76.3245 18.0423 67.944L138.422 45.558Z" fill="#E7E8E9"/>
<path d="M140.384 26.3923C140.167 25.6668 139.919 24.9506 139.64 24.2438C139.183 23.1635 138.669 22.1321 138.1 21.1497C137.832 20.7443 137.568 20.334 137.307 19.9185C136.407 18.5898 135.381 17.3711 134.228 16.2625C133.498 15.7608 132.731 15.2855 131.927 14.8369C127.368 12.3537 121.596 10.9353 114.613 10.5819C100.056 9.85416 84.1947 13.9156 67.0295 22.7662C49.3099 31.9055 35.2017 43.5214 24.7048 57.614C23.6237 59.0719 22.6263 60.5039 21.7127 61.9101C20.8388 63.2028 20.0346 64.4818 19.3001 65.7473C18.8625 66.4856 18.4432 67.2179 18.0423 67.9441C13.4694 76.3245 11.5145 84.0679 12.1777 91.1744C12.3239 92.9893 12.6721 94.7869 13.2224 96.5671C13.7717 98.5112 14.5404 100.304 15.5286 101.946C16.5462 103.77 17.8164 105.387 19.339 106.797C19.6862 107.044 20.0525 107.282 20.438 107.51C20.5394 107.571 20.654 107.632 20.7817 107.694C22.753 108.862 24.9684 109.819 27.4281 110.563C23.977 109.752 20.9475 108.574 18.3396 107.028C18.227 106.975 18.1124 106.914 17.9958 106.845C17.6129 106.618 17.2415 106.377 16.8815 106.122C15.348 104.687 14.0636 103.047 13.0284 101.205C12.0318 99.5306 11.2548 97.7053 10.6973 95.7288C10.1429 93.9324 9.79651 92.1085 9.6582 90.2571C8.93056 82.405 11.3463 73.7894 16.9055 64.4102C17.652 63.1244 18.4683 61.8251 19.3541 60.5121C20.2858 59.0754 21.3033 57.621 22.4065 56.1489C33.0798 41.8042 47.4092 29.9764 65.3946 20.6655C82.8257 11.6433 98.9259 7.49035 113.695 8.20669C120.774 8.56161 126.623 9.99872 131.243 12.518C132.064 12.9647 132.846 13.4489 133.59 13.9708C134.752 15.0833 135.785 16.313 136.69 17.66C136.972 18.0875 137.238 18.506 137.489 18.9154C138.068 19.9172 138.589 20.9596 139.051 22.0428C139.61 23.4582 140.055 24.908 140.384 26.3923L140.384 26.3923Z" fill="#7F7F7F"/>
<path opacity="0.7" d="M14.2599 76.3496L135.368 53.9558C134.967 54.682 134.548 55.4142 134.11 56.1525C133.376 57.418 132.571 58.6971 131.698 59.9897C130.784 61.3959 129.787 62.8279 128.705 64.2858C118.209 78.3784 104.1 89.9944 86.3808 99.1337C69.2155 107.984 53.3544 112.046 38.7973 111.318C31.814 110.965 25.8318 110.472 21.2722 107.989C20.4689 107.54 19.7019 107.065 18.9711 106.563C17.8182 105.454 16.6103 103.349 15.7108 102.021C15.4496 101.605 15.1854 101.195 14.9181 100.79C14.3482 99.807 13.6797 97.6474 13.2224 96.5671C12.6749 95.4782 12.061 91.7052 12.0518 90.2419C12.0274 86.3746 12.4203 81.3155 14.2599 76.3496Z" fill="#DDDDDD"/>
<path d="M65.5576 132.65C76.6727 130.487 88.1852 126.111 100.095 119.522C111.818 113.042 121.903 105.53 130.353 96.986C136.171 91.1074 141.218 84.7374 145.494 77.876C155.923 61.0954 158.603 46.3203 153.536 33.5505C153.45 33.3485 153.367 33.1415 153.287 32.9294L154.653 35.2412C154.863 35.5578 155.072 35.8876 155.281 36.2305C156.104 37.6649 156.839 39.1909 157.485 40.8086C162.582 53.5276 159.931 68.252 149.533 84.9817C145.281 91.8025 140.249 98.1471 134.437 104.016C126.017 112.509 115.95 119.977 104.236 126.421C94.2202 131.938 84.4874 135.887 75.0375 138.269C65.8036 140.587 56.846 141.429 48.1648 140.796C33.7169 139.722 23.487 134.804 17.4752 126.041C16.7186 124.935 16.0374 123.769 15.4317 122.546L14.5009 121.028C20.6358 128.724 30.4519 133.068 43.9491 134.059C50.9696 134.558 58.1725 134.088 65.5576 132.65L65.5576 132.65H65.5576Z" fill="white"/>
<path d="M97.2916 114.672C83.8703 122.079 70.9642 126.692 58.5733 128.51C52.6404 129.369 46.8292 129.594 41.1395 129.184C27.7152 128.209 17.7505 123.687 11.2453 115.621L5.6588 106.301C7.46594 108.991 9.66322 111.322 12.2506 113.295C18.2358 117.885 26.3337 120.559 36.5441 121.316C39.841 121.556 43.1821 121.582 46.5675 121.394C61.1742 120.601 76.5204 115.788 92.6062 106.956C103.69 100.838 113.297 93.8105 121.429 85.8736C127.821 79.6495 133.311 72.8558 137.897 65.4926C146.579 51.5038 149.853 38.9114 147.719 27.7154C147.297 25.5316 146.674 23.3996 145.849 21.3195C145.301 19.9522 144.678 18.6432 143.979 17.3922L150.693 28.5936C150.701 28.6259 150.714 28.6613 150.733 28.6996C155.796 41.4532 153.113 56.2203 142.685 73.0008C138.429 79.8743 133.382 86.2443 127.543 92.1109C119.094 100.655 109.01 108.175 97.2917 114.672L97.2916 114.672H97.2916Z" fill="#E7E8E9"/>
<path d="M58.5731 128.51C70.964 126.692 83.8701 122.079 97.2914 114.672C109.01 108.175 119.093 100.655 127.543 92.1108C133.381 86.2442 138.429 79.8742 142.684 73.0008C153.113 56.2203 155.795 41.4532 150.733 28.6995C150.714 28.6612 150.701 28.6258 150.693 28.5935L153.287 32.9295C153.367 33.1415 153.45 33.3485 153.536 33.5505C158.603 46.3203 155.922 61.0954 145.494 77.876C141.218 84.7374 136.171 91.1074 130.352 96.986C121.903 105.53 111.817 113.042 100.095 119.522C88.1851 126.111 76.6726 130.487 65.5575 132.65C58.1723 134.088 50.9695 134.558 43.949 134.059C30.4518 133.068 20.6357 128.724 14.5007 121.027L11.2451 115.621C17.7503 123.687 27.715 128.209 41.1393 129.184C46.829 129.594 52.6403 129.369 58.5731 128.51L58.5731 128.51Z" fill="url(#paint0_linear_16_1802)"/>
<path d="M54.3697 38.9893C55.9398 38.8785 58.5746 41.3566 59.7135 41.5911C30.661 62.8499 37.2991 85.801 59.3496 84.2487C67.2681 83.6912 77.1696 79.9768 88.1242 71.8891C89.5559 75.5901 90.9876 79.2911 92.4126 82.9926C86.6381 86.8945 80.5718 90.414 74.2554 92.7937C68.1273 95.1704 62.3614 96.4687 57.1332 96.8368C33.5395 98.4978 20.888 81.2175 35.2322 58.6409C39.4199 51.6901 45.958 44.8803 53.6079 39.3654C53.8117 39.1247 54.0716 39.0104 54.3697 38.9893V38.9893ZM54.7766 35.9345C81.3506 34.0636 101.414 43.3388 116.43 55.268C112.834 64.4696 104.522 74.2301 94.2238 81.5203C87.6042 62.0184 76.6399 43.8949 54.3768 35.9634C54.5091 35.9536 54.6445 35.9438 54.7765 35.9345H54.7766ZM92.4218 22.5397C113.038 21.086 126.718 33.3777 118.082 53.9601C114.545 51.6103 111.738 48.6246 107.792 46.6611C108.674 44.3293 108.384 41.6885 108.654 39.3373C106.334 32.2906 98.8011 28.2141 88.6371 28.9292C87.0904 29.038 85.4843 29.2577 83.8247 29.5948C74.2844 31.9819 73.5694 33.739 69.0468 34.0574C67.2712 34.1824 64.9093 34.0859 61.1949 33.7187C72.0701 26.7575 82.976 23.2057 92.4218 22.5397" fill="black"/>
<path d="M53.1407 38.6482C54.7108 38.5373 57.3456 41.0154 58.4845 41.2499C29.432 62.5087 36.0701 85.4599 58.1206 83.9075C66.0391 83.35 75.9407 79.6356 86.8952 71.548C88.3269 75.2489 89.7586 78.95 91.1836 82.6514C85.4091 86.5533 79.3428 90.0729 73.0264 92.4525C66.8983 94.8293 61.1324 96.1275 55.9042 96.4956C32.3105 98.1566 19.659 80.8763 34.0032 58.2997C38.1909 51.3489 44.729 44.5391 52.3789 39.0242C52.5827 38.7835 52.8426 38.6692 53.1407 38.6481V38.6482ZM53.5476 35.5933C80.1216 33.7225 100.185 42.9976 115.201 54.9269C111.605 64.1284 103.293 73.8889 92.9947 81.1791C86.3752 61.6772 75.4109 43.5537 53.1478 35.6222C53.2802 35.6124 53.4155 35.6026 53.5475 35.5933H53.5476ZM91.1928 22.1985C111.809 20.7448 125.489 33.0365 116.853 53.619C113.316 51.2691 110.509 48.2835 106.563 46.3199C107.445 43.9881 107.155 41.3473 107.425 38.9961C105.105 31.9495 97.5721 27.873 87.4081 28.588C85.8614 28.6968 84.2553 28.9165 82.5957 29.2536C73.0554 31.6407 72.3404 33.3979 67.8178 33.7163C66.0422 33.8413 63.6803 33.7447 59.9659 33.3775C70.8411 26.4163 81.747 22.8645 91.1928 22.1985" fill="url(#paint1_linear_16_1802)"/>
</g>
<defs>
<linearGradient id="paint0_linear_16_1802" x1="46.4051" y1="123.83" x2="155.998" y2="52.541" gradientUnits="userSpaceOnUse">
<stop stop-color="#77F8DC"/>
<stop offset="0.11899" stop-color="#7CF8D4"/>
<stop offset="0.29929" stop-color="#8CF9BF"/>
<stop offset="0.51852" stop-color="#A6FA9D"/>
<stop offset="0.76586" stop-color="#C9FC6E"/>
<stop offset="1" stop-color="#F0FE3B"/>
</linearGradient>
<linearGradient id="paint1_linear_16_1802" x1="119.176" y1="60.1226" x2="28.2425" y2="58.5722" gradientUnits="userSpaceOnUse">
<stop stop-color="#F0FE3B"/>
<stop offset="0.43664" stop-color="#B6FB87"/>
<stop offset="0.81887" stop-color="#88F8C4"/>
<stop offset="1" stop-color="#77F8DC"/>
</linearGradient>
<clipPath id="clip0_16_1802">
<rect width="160" height="141" fill="white" transform="matrix(-1 0 0 1 160 0)"/>
</clipPath>
</defs>
</svg>
