<svg width="212" height="225" viewBox="0 0 212 225" fill="none" xmlns="http://www.w3.org/2000/svg">
<g clip-path="url(#clip0_16_1747)">
<path d="M56.2864 160.281C46.541 151.877 38.5583 143.157 32.3384 134.121C26.2708 125.288 21.8662 116.168 19.1247 106.761C14.5845 91.0963 15.7506 78.3748 22.623 68.5962C23.4923 67.364 24.4525 66.1885 25.5036 65.0699L38.7842 48.3889C40.2552 46.3615 41.9679 44.4519 43.9224 42.6601C45.6932 41.0643 47.5794 39.6512 49.5811 38.4207C60.5889 31.5851 75.2705 30.03 93.6259 33.7551C115.324 38.1634 135.803 48.6628 155.063 65.2533C174.318 81.87 186.718 99.719 192.26 118.8C196.924 134.905 195.538 147.91 188.103 157.817C187.676 158.387 187.234 158.935 186.775 159.459L172.158 177.719C171.907 178.065 171.642 178.415 171.362 178.769C170.174 180.2 168.855 181.574 167.404 182.89C156.003 193.255 139.447 196.233 117.736 191.822C108.879 190.011 100.218 187.189 91.7527 183.358C79.4978 177.806 67.6757 170.114 56.2864 160.281L56.2864 160.281L56.2864 160.281Z" fill="#E7E8E9"/>
<path d="M133.704 171.903C124.144 169.952 114.83 166.824 105.762 162.52C94.2063 157.054 83.0293 149.673 72.2308 140.379C56.6088 126.871 45.5127 112.567 38.9425 97.4672C37.4152 93.9692 36.1306 90.434 35.0887 86.8617C31.8781 75.7923 31.5162 66.2003 34.003 58.0858C35.0657 54.5825 36.6594 51.3502 38.7842 48.3888C40.2552 46.3615 41.9679 44.4519 43.9224 42.66C45.6931 41.0643 47.5794 39.6511 49.5811 38.4206C60.5889 31.5851 75.2705 30.0299 93.6259 33.7551C115.324 38.1633 135.803 48.6628 155.063 65.2533C174.319 81.87 186.718 99.719 192.26 118.8C196.924 134.905 195.538 147.91 188.103 157.817C187.676 158.387 187.234 158.935 186.775 159.459C185.732 160.687 184.597 161.858 183.371 162.972C181.503 164.658 179.502 166.151 177.366 167.452C166.407 174.094 151.852 175.578 133.704 171.903L133.704 171.903ZM175.171 159.654C175.409 159.511 175.646 159.358 175.88 159.195C177.315 158.266 178.668 157.229 179.94 156.083C180.9 155.171 181.794 154.213 182.622 153.209C182.955 152.784 183.292 152.338 183.632 151.874C184.696 150.391 185.586 148.818 186.302 147.157C187.242 144.992 187.887 142.681 188.239 140.224C189.079 134.361 188.297 127.626 185.892 120.019C180.849 104.153 170.151 88.7952 153.8 73.9458C136.928 58.623 118.84 48.1364 99.5367 42.4859C97.5495 41.9148 95.6164 41.4181 93.7372 40.996C92.006 40.5756 90.3164 40.224 88.6683 39.9412C76.6025 37.755 66.5769 38.5781 58.5913 42.4105C56.6915 43.3001 54.9056 44.3807 53.2337 45.6524C51.3678 47.0273 49.7494 48.5629 48.3786 50.259C46.3377 52.6801 44.8465 55.4185 43.9049 58.4741C43.7022 59.0229 43.5268 59.5846 43.3788 60.1593C43.2519 60.6389 43.1441 61.1251 43.0553 61.618C43.0282 61.7682 43.0089 61.913 42.9972 62.0526C42.3922 65.4102 42.3399 69.0686 42.8402 73.0276C43.2901 76.547 44.1715 80.2994 45.4843 84.2848C46.5565 87.5394 47.8733 90.7837 49.4347 94.0177C56.1042 107.893 67.0087 121.164 82.1483 133.832C92.3866 142.344 102.823 149.119 113.458 154.158C121.631 158.042 129.943 160.895 138.393 162.716C144.397 164.007 149.904 164.649 154.915 164.641C162.924 164.632 169.675 162.97 175.171 159.654L175.171 159.654L175.171 159.654Z" fill="white"/>
<path d="M43.3787 60.1593C43.5267 59.5847 43.7021 59.0229 43.9048 58.4742C44.8464 55.4185 46.3377 52.6802 48.3785 50.2591C49.7494 48.5629 51.3678 47.0274 53.2336 45.6524C54.9056 44.3807 56.6914 43.3001 58.5912 42.4106C66.5768 38.5781 76.6025 37.755 88.6682 39.9412C90.3163 40.224 92.006 40.5756 93.7371 40.9961C95.6163 41.4182 97.5495 41.9148 99.5367 42.486C118.84 48.1364 136.928 58.623 153.8 73.9458C170.151 88.7953 180.849 104.153 185.892 120.019C188.297 127.626 189.079 134.361 188.239 140.224C187.887 142.681 187.242 144.992 186.302 147.157C186.559 146.167 186.763 145.152 186.911 144.111C187.752 138.248 186.969 131.514 184.564 123.906C179.521 108.043 168.823 92.6856 152.473 77.8329C135.6 62.5086 117.511 52.0285 98.2058 46.3926C96.2214 45.8059 94.2894 45.3027 92.4098 44.8831C90.6785 44.4633 88.9889 44.1117 87.3409 43.8283C75.2753 41.6409 65.2485 42.4706 57.2603 46.3172C55.3637 47.1891 53.5779 48.2697 51.9027 49.5591C50.0389 50.9223 48.4206 52.4579 47.0476 54.1658C45.5126 55.9805 44.2896 57.9784 43.3787 60.1593L43.3787 60.1593Z" fill="#DBDBDB"/>
<path d="M154.915 164.641C149.904 164.649 144.397 164.007 138.393 162.716C129.943 160.895 121.631 158.042 113.458 154.158C102.823 149.119 92.3865 142.344 82.1482 133.832C67.0086 121.164 56.1041 107.893 49.4346 94.0177C47.8732 90.7837 46.5564 87.5395 45.4842 84.2848C44.1714 80.2994 43.29 76.547 42.8401 73.0276C42.6591 70.1406 42.7972 67.4281 43.2545 64.8902C43.2696 64.7311 43.289 64.5863 43.3125 64.4557C43.402 63.9594 43.5086 63.4797 43.6325 63.0166C44.5205 60.8572 45.7257 58.8832 47.2481 57.0943C48.5902 55.4079 50.1778 53.8937 52.0107 52.5519C53.6704 51.2732 55.4278 50.201 57.2829 49.3351C64.5107 45.8488 73.4376 44.8749 84.0636 46.4134L154.915 164.641Z" fill="#E7E8E9"/>
<path d="M175.88 159.195C176.56 158.682 177.217 158.139 177.852 157.568C178.811 156.662 179.696 155.716 180.508 154.729C180.83 154.288 181.159 153.849 181.494 153.41C182.541 151.94 183.422 150.38 184.138 148.729C184.379 147.761 184.579 146.765 184.736 145.742C185.563 139.958 184.791 133.312 182.422 125.806C177.474 110.162 166.967 95.0209 150.901 80.3814C134.314 65.2703 116.535 54.9405 97.5644 49.3919C95.6038 48.8229 93.7032 48.3322 91.8628 47.9197C90.1576 47.5046 88.4941 47.1577 86.8722 46.8789C85.9225 46.7067 84.9863 46.5516 84.0637 46.4134C73.4377 44.8749 64.5109 45.8488 57.283 49.3351C55.428 50.2009 53.6706 51.2732 52.0108 52.5519C50.1779 53.8937 48.5904 55.4079 47.2482 57.0943C45.7258 58.8831 44.5206 60.8572 43.6326 63.0166C43.5087 63.4797 43.4021 63.9594 43.3127 64.4557C43.2892 64.5863 43.2698 64.7311 43.2546 64.8902C42.7973 67.4281 42.6592 70.1406 42.8403 73.0276C42.34 69.0685 42.3923 65.4102 42.9972 62.0525C43.0089 61.913 43.0282 61.7682 43.0553 61.618C43.1441 61.1251 43.252 60.6389 43.3788 60.1593C44.2897 57.9783 45.5127 55.9804 47.0477 54.1657C48.4207 52.4578 50.0391 50.9223 51.9028 49.5591C53.578 48.2697 55.3638 47.1891 57.2604 46.3172C65.2486 42.4705 75.2754 41.6409 87.341 43.8282C88.989 44.1117 90.6786 44.4633 92.4099 44.8831C94.2895 45.3027 96.2215 45.8059 98.2059 46.3926C117.512 52.0285 135.601 62.5085 152.473 77.8328C168.824 92.6855 179.521 108.043 184.565 123.906C186.97 131.514 187.752 138.248 186.911 144.111C186.763 145.152 186.56 146.167 186.302 147.157C185.586 148.818 184.696 150.391 183.632 151.874C183.292 152.338 182.955 152.784 182.622 153.209C181.794 154.213 180.9 155.171 179.94 156.083C178.669 157.229 177.315 158.266 175.88 159.195L175.88 159.195Z" fill="#7F7F7F"/>
<path opacity="0.7" d="M175.88 159.195C175.646 159.358 175.409 159.511 175.171 159.654C169.675 162.97 162.924 164.632 154.915 164.641L84.0635 46.4134C84.9861 46.5516 85.9223 46.7068 86.8721 46.8789C88.4939 47.1577 90.1574 47.5046 91.8626 47.9197C93.7031 48.3322 95.6036 48.823 97.5642 49.3919C116.535 54.9405 134.314 65.2703 150.901 80.3814C166.966 95.0209 177.473 110.162 182.422 125.806C184.791 133.312 185.563 139.958 184.736 145.742C184.579 146.765 184.379 147.761 184.137 148.729C183.422 150.38 182.541 151.94 181.494 153.41C181.159 153.849 180.83 154.288 180.508 154.729C179.696 155.716 178.811 156.662 177.852 157.568C177.217 158.14 176.56 158.682 175.88 159.195L175.88 159.195L175.88 159.195Z" fill="#DDDDDD"/>
<path d="M34.5375 121.916C41.1805 132.795 50.3113 143.225 61.9299 153.207C73.3607 163.034 85.2363 170.729 97.5565 176.293C106.035 180.126 114.729 182.954 123.638 184.774C145.414 189.197 162.035 186.231 173.502 175.878C173.681 175.708 173.866 175.539 174.058 175.372L172.158 177.719C171.907 178.065 171.642 178.415 171.362 178.769C170.174 180.2 168.855 181.574 167.404 182.89C156.003 193.255 139.447 196.233 117.736 191.822C108.88 190.011 100.218 187.189 91.7527 183.358C79.4978 177.806 67.6757 170.114 56.2864 160.281C46.541 151.877 38.5583 143.157 32.3384 134.121C26.2708 125.288 21.8662 116.168 19.1247 106.761C14.5845 91.0963 15.7506 78.3748 22.623 68.5962C23.4923 67.364 24.4525 66.1885 25.5036 65.0699L26.7385 63.4922C21.0371 72.9828 20.3139 85.0425 24.5687 99.6711C26.7993 107.274 30.1222 114.689 34.5374 121.916L34.5375 121.916L34.5375 121.916Z" fill="white"/>
<path d="M65.9406 148.347C52.8659 137.092 42.9383 125.284 36.1575 112.924C32.9231 107.002 30.4048 100.959 28.6026 94.7952C24.3597 80.2496 25.2114 67.9636 31.1576 57.9372L38.7841 48.3889C36.6594 51.3502 35.0657 54.5825 34.003 58.0858C31.5161 66.2004 31.878 75.7924 35.0886 86.8618C36.1306 90.4341 37.4152 93.9693 38.9424 97.4672C45.5127 112.567 56.6088 126.871 72.2308 140.379C83.0292 149.673 94.2063 157.054 105.762 162.52C114.83 166.824 124.144 169.952 133.703 171.903C151.852 175.578 166.406 174.094 177.366 167.452C179.502 166.151 181.503 164.658 183.371 162.972C184.597 161.858 185.732 160.687 186.775 159.459L177.608 170.934C177.577 170.956 177.545 170.984 177.512 171.018C166.061 181.361 149.448 184.321 127.672 179.899C118.758 178.104 110.064 175.277 101.59 171.417C89.27 165.853 77.3868 158.163 65.9406 148.347L65.9406 148.347L65.9406 148.347Z" fill="#E7E8E9"/>
<path d="M36.1575 112.924C42.9382 125.284 52.8659 137.092 65.9406 148.347C77.3869 158.163 89.27 165.853 101.59 171.417C110.064 175.276 118.758 178.104 127.672 179.898C149.448 184.321 166.061 181.361 177.512 171.018C177.545 170.984 177.577 170.956 177.608 170.934L174.058 175.372C173.866 175.539 173.68 175.708 173.501 175.878C162.035 186.231 145.414 189.197 123.638 184.774C114.729 182.954 106.035 180.126 97.5563 176.293C85.2362 170.729 73.3606 163.034 61.9298 153.207C50.3112 143.225 41.1804 132.795 34.5374 121.916C30.1222 114.689 26.7993 107.274 24.5687 99.6711C20.3138 85.0425 21.0371 72.9828 26.7384 63.4922L31.1576 57.9372C25.2114 67.9636 24.3597 80.2496 28.6026 94.7952C30.4047 100.959 32.9231 107.002 36.1575 112.924L36.1575 112.924Z" fill="url(#paint0_linear_16_1747)"/>
<path d="M109.11 69.3931L172.95 109.9L131.355 131.391L142.124 102.041L109.11 69.3931L109.11 69.3931ZM51.0363 87.9349L101.999 68.1118L135.257 103.109L124.247 130.09L51.0363 87.9348L51.0363 87.9349Z" fill="black"/>
<path d="M110.313 67.9918L174.156 108.479L132.561 129.97L143.331 100.62L110.313 67.9918Z" fill="url(#paint1_linear_16_1747)"/>
<path d="M52.2427 86.5139L103.182 66.7069L136.444 101.685L125.434 128.666L52.2427 86.5139Z" fill="url(#paint2_linear_16_1747)"/>
</g>
<defs>
<linearGradient id="paint0_linear_16_1747" x1="36.3222" y1="98.266" x2="154.569" y2="185.801" gradientUnits="userSpaceOnUse">
<stop stop-color="#F0FE3B"/>
<stop offset="0.23414" stop-color="#C9FC6E"/>
<stop offset="0.48148" stop-color="#A6FA9D"/>
<stop offset="0.70071" stop-color="#8CF9BF"/>
<stop offset="0.88101" stop-color="#7CF8D4"/>
<stop offset="1" stop-color="#77F8DC"/>
</linearGradient>
<linearGradient id="paint1_linear_16_1747" x1="143.545" y1="100.562" x2="145.722" y2="121.039" gradientUnits="userSpaceOnUse">
<stop stop-color="#F0FE3B"/>
<stop offset="0.43664" stop-color="#B6FB87"/>
<stop offset="0.81887" stop-color="#88F8C4"/>
<stop offset="1" stop-color="#77F8DC"/>
</linearGradient>
<linearGradient id="paint2_linear_16_1747" x1="89.3425" y1="84.2082" x2="115.14" y2="135.123" gradientUnits="userSpaceOnUse">
<stop stop-color="#F0FE3B"/>
<stop offset="0.43664" stop-color="#B6FB87"/>
<stop offset="0.81887" stop-color="#88F8C4"/>
<stop offset="1" stop-color="#77F8DC"/>
</linearGradient>
<clipPath id="clip0_16_1747">
<rect width="158.528" height="180.116" fill="white" transform="matrix(-0.937209 0.348767 0.348767 0.937209 148.573 0.735718)"/>
</clipPath>
</defs>
</svg>
