<svg width="186" height="175" viewBox="0 0 186 175" fill="none" xmlns="http://www.w3.org/2000/svg">
<g clip-path="url(#clip0_449_57)">
<path d="M67.923 136.509C76.7113 142.11 85.3612 146.181 93.7481 148.867C101.97 151.51 110.093 152.809 117.954 152.723C131.11 152.593 140.642 148.717 146.631 141.119C147.4 140.174 148.025 139.104 148.65 138.035L158.411 123.936C159.617 122.313 160.68 120.565 161.619 118.61C162.412 116.88 163.04 115.108 163.606 113.233C166.276 103.11 164.049 91.4633 156.865 78.1895C148.368 62.4685 135.392 49.1107 118.104 38.1584C100.733 27.185 84.0635 21.7528 67.9904 21.9233C54.4826 22.0506 44.7228 26.1306 38.8764 34.2057C38.5022 34.6367 38.1897 35.1715 37.8982 35.6238L27.2422 51.1619C26.9928 51.4493 26.826 51.7579 26.5766 52.0453C25.7231 53.3197 25.035 54.6367 24.3259 56.0362C19.0041 67.2344 20.5816 80.7353 29.1618 96.4775C32.6306 102.907 36.8252 108.908 41.8071 114.584C48.8885 122.734 57.5868 130.07 67.923 136.509V136.509Z" fill="#E7E8E9"/>
<path d="M40.7133 79.5C44.4901 86.4481 49.0965 92.9066 54.5323 98.8754C61.4709 106.549 69.8401 113.449 79.5361 119.635C93.6473 128.539 107.277 133.804 120.53 135.369C123.61 135.722 126.65 135.889 129.65 135.87C138.917 135.794 146.476 133.784 152.097 130.045C154.545 128.39 156.642 126.381 158.451 124.122C159.658 122.499 160.72 120.751 161.659 118.796C162.453 117.066 163.081 115.295 163.647 113.419C166.316 103.296 164.09 91.6495 156.906 78.3757C148.408 62.6547 135.433 49.2968 118.145 38.3446C100.774 27.3712 84.104 21.939 68.031 22.1094C54.5231 22.2368 44.7633 26.3168 38.9169 34.3919C38.5428 34.8229 38.2303 35.3577 37.9388 35.81C37.2311 36.8583 36.585 38.0103 36.0006 39.2661C35.1862 41.0779 34.4335 42.9935 33.9288 44.9729C31.2607 54.7447 33.5909 66.33 40.7133 79.5M40.3423 44.6898L40.5106 44.03C40.8471 42.7104 41.3489 41.4334 41.9333 40.1776C42.4337 39.2517 42.934 38.3259 43.517 37.4213C43.7874 37.0514 44.0579 36.6816 44.3283 36.3118C45.2434 35.141 46.2201 34.0741 47.341 33.1321C48.7941 31.9241 50.3913 30.8411 52.2772 30.0081C56.5883 27.9535 62.0115 27.0641 68.4236 27.1321C81.8474 27.3346 96.2452 32.0063 111.535 41.1259C127.36 50.5593 139.661 62.0737 148.623 75.6291C149.506 76.999 150.39 78.3689 151.17 79.8C151.91 81.045 152.566 82.2686 153.141 83.4709C157.675 92.2838 159.359 100.187 158.357 107.224C158.102 108.916 157.702 110.483 157.116 112.09C156.488 113.862 155.737 115.426 154.738 116.927C153.322 119.023 151.618 120.87 149.482 122.342C149.149 122.608 148.714 122.935 148.299 123.18C147.988 123.363 147.573 123.608 147.262 123.792L146.951 123.975C144.526 125.197 141.647 126.126 138.521 126.64C135.665 127.135 132.623 127.319 129.21 127.232C126.418 127.129 123.647 126.943 120.774 126.467C108.495 124.538 95.6722 119.217 82.3049 110.504C73.3317 104.592 65.6433 98.1312 59.2397 91.1224C54.2773 85.7149 50.185 80.0039 46.7358 73.8432C44.313 69.5285 42.5515 65.3841 41.3265 61.5534C39.4085 55.2594 39.0804 49.6382 40.3423 44.6898V44.6898Z" fill="white"/>
<path opacity="0.7" d="M41.2647 61.4496C42.4687 65.3628 44.2512 69.4248 46.674 73.7394C50.0616 79.7963 54.2155 85.611 59.1779 91.0186C65.5815 98.0275 73.2699 104.488 82.2431 110.4C95.6105 119.113 108.434 124.434 120.712 126.364C123.586 126.839 126.439 127.046 129.149 127.128C132.561 127.215 135.603 127.031 138.459 126.536C140.716 125.974 142.829 125.288 144.653 124.351L144.964 124.167C145.358 124.005 145.669 123.821 146.001 123.555C147.454 122.347 148.68 120.993 149.701 119.41C150.679 117.992 153.126 111.503 153.36 109.893C154.38 103.476 153.024 96.3602 149.292 88.5448L41.2647 61.4496Z" fill="#DDDDDD"/>
<path d="M40.5105 44.03C40.7614 43.3915 41.0123 42.7529 41.2632 42.1144C41.7636 41.1885 42.2639 40.2627 42.8258 39.4405C43.0963 39.0707 43.3668 38.7009 43.6162 38.4135C44.5312 37.2428 45.4869 36.2583 46.6078 35.3164C47.3336 34.8879 48.0384 34.542 48.7641 34.1135C53.0542 32.1415 58.3122 31.2095 64.7242 31.2775C77.9827 31.4375 92.1326 36.0454 107.195 45.0187C122.794 54.3058 134.971 65.6127 143.727 78.9394C144.611 80.3093 145.495 81.6792 146.213 83.0066C146.952 84.2515 147.609 85.4751 148.204 86.595C148.553 87.3 148.902 88.0049 149.271 88.6273C153.003 96.4427 154.359 103.559 153.339 109.976C153.105 111.585 152.685 113.235 152.12 114.759C151.513 116.449 150.74 118.095 149.762 119.514C148.742 121.097 147.495 122.533 146.063 123.659L145.026 124.271L144.715 124.455C142.891 125.391 140.757 126.161 138.521 126.64C141.647 126.126 144.526 125.197 146.951 123.975L147.262 123.792C147.656 123.629 147.967 123.446 148.299 123.18C149.752 121.972 150.999 120.535 152.019 118.952C152.997 117.534 153.852 115.908 154.398 114.115C154.984 112.508 155.404 110.859 155.639 109.249C156.744 102.151 154.978 94.2263 150.443 85.4134C149.869 84.211 149.13 82.9662 148.473 81.7425C147.672 80.3939 146.871 79.0452 145.904 77.6541C137.025 64.1199 124.642 52.5842 108.837 43.0683C93.548 33.9488 79.1501 29.2771 65.7263 29.0746C59.3143 29.0065 53.87 29.9785 49.5799 31.9505C48.7925 32.2752 48.0668 32.7037 47.341 33.1321C46.22 34.0741 45.2434 35.141 44.3283 36.3117C44.0578 36.6816 43.7874 37.0514 43.5169 37.4212C42.9339 38.3258 42.4336 39.2517 41.9333 40.1776C41.3699 41.3509 40.9297 42.7317 40.5105 44.03L40.5105 44.03Z" fill="#7F7F7F"/>
<path d="M40.8306 61.4258L149.458 88.5874C149.109 87.8824 148.843 87.1988 148.391 86.5551C147.817 85.3527 147.16 84.1291 146.399 82.9666C145.681 81.6393 144.797 80.2693 143.914 78.8994C135.158 65.5728 122.98 54.2659 107.381 44.9787C92.319 36.0054 78.1691 31.3976 64.9107 31.2376C58.5813 31.1908 53.0994 31.2742 48.8093 33.2463C48.0219 33.571 47.2961 33.9994 46.653 34.4491C45.532 35.3911 44.3661 37.2003 43.451 38.371C43.1806 38.7408 42.9101 39.1106 42.6607 39.398C42.0987 40.2201 41.346 42.1357 40.9073 43.1653C40.3243 44.0699 39.6274 47.4939 39.4772 48.7735C39.4008 52.1814 39.4643 56.7678 40.8306 61.4258V61.4258Z" fill="url(#paint0_linear_449_57)"/>
<path d="M102.641 144.388C92.64 141.814 82.4618 137.174 72.0024 130.527C61.6872 124.006 53.01 116.588 45.7633 108.396C40.7813 102.719 36.5867 96.7183 33.0353 90.2677C24.4551 74.5254 22.8776 61.0245 28.1377 49.7226C28.1798 49.5576 28.3255 49.3315 28.3676 49.1665L26.9733 51.1806C26.7238 51.468 26.5571 51.7766 26.3076 52.064C25.4542 53.3384 24.766 54.6554 24.0569 56.0549C18.7352 67.2531 20.3126 80.7539 28.8929 96.4962C32.3616 102.926 36.5562 108.927 41.5381 114.603C48.7022 122.774 57.4005 130.11 67.7157 136.631C76.504 142.232 85.1539 146.304 93.5408 148.989C101.762 151.632 109.886 152.931 117.747 152.845C130.903 152.715 140.434 148.84 146.424 141.241C147.193 140.296 147.818 139.227 148.443 138.157L149.4 136.822C143.394 143.45 134.258 146.811 121.991 146.906C115.724 146.963 109.253 146.089 102.641 144.388V144.388Z" fill="#E7E8E9"/>
<path d="M74.8331 126.334C86.5714 133.837 98.0105 138.714 109.212 141.069C114.565 142.183 119.796 142.738 125.009 142.673C137.192 142.557 146.536 139.073 152.895 132.096L158.493 123.957C156.663 126.299 154.587 128.225 152.139 129.88C146.497 133.702 138.959 135.629 129.692 135.705C126.693 135.724 123.653 135.557 120.572 135.204C107.402 133.661 93.6893 128.374 79.5781 119.47C69.8822 113.284 61.513 106.384 54.5743 98.7105C49.1386 92.7417 44.5322 86.2832 40.7553 79.3351C33.6329 66.1651 31.3854 54.6011 33.9302 44.6218C34.435 42.6424 35.084 40.788 36.002 38.915C36.5654 37.7417 37.2115 36.5897 37.9402 35.4589L31.2389 45.1596L31.2179 45.2421C25.9788 56.4616 27.5563 69.9624 36.1155 85.7872C39.5843 92.2166 43.8404 98.3213 48.8434 103.915C55.8407 112.395 64.539 119.731 74.8331 126.334V126.334Z" fill="#E7E8E9"/>
<path d="M109.129 141.048C98.0104 138.714 86.5097 133.733 74.7504 126.313C64.4353 119.792 55.758 112.374 48.5113 104.181C43.5293 98.5048 39.3348 92.5039 35.7834 86.0532C27.2031 70.311 25.6257 56.8101 30.8858 45.5081L30.9068 45.4256L28.3465 49.249C28.3044 49.4139 28.1587 49.6401 28.1166 49.805C22.8565 61.107 24.4339 74.6078 33.0142 90.3501C36.483 96.7795 40.7391 102.884 45.7421 108.478C52.9062 116.649 61.6661 124.089 71.9813 130.61C82.4407 137.256 92.6189 141.897 102.62 144.47C109.232 146.172 115.703 147.046 122.157 146.949C134.423 146.854 143.559 143.492 149.565 136.864L152.791 132.158C146.453 139.052 137.171 142.639 124.905 142.735C119.713 142.717 114.482 142.162 109.129 141.048L109.129 141.048Z" fill="url(#paint1_linear_449_57)"/>
<path d="M119.565 65.1242C121.202 67.5376 122.308 69.9967 123.507 72.4218C127.887 81.2795 132.318 90.1407 136.688 99.0678C136.831 99.3675 136.518 99.4973 136.175 99.275C126.928 93.3362 90.1739 69.5514 82.5515 64.4986C82.195 64.2602 82.0333 63.8994 82.2029 63.7151C86.1542 59.3253 88.8265 54.042 96.7951 53.2455C105.224 52.3938 113.863 56.7215 119.565 65.1242" fill="black"/>
<path d="M76.7558 87.9357C75.1213 85.5274 74.0194 83.0635 72.8202 80.6384C68.4344 71.7802 64.0054 62.9243 59.6387 53.9923C59.4904 53.6924 59.809 53.5628 60.146 53.7848C69.3932 59.7235 106.153 83.5089 113.77 88.5614C114.132 88.8 114.294 89.1608 114.127 89.3503C110.167 93.7345 107.495 99.018 99.5344 99.8199C91.097 100.666 82.4603 96.3435 76.7558 87.9357" fill="black"/>
<path d="M121.29 64.6851C122.927 67.0984 124.032 69.5575 125.231 71.9827C129.611 80.8404 134.043 89.7015 138.413 98.6287C138.555 98.9284 138.243 99.0582 137.9 98.8359C128.653 92.8971 91.8985 69.1123 84.2761 64.0595C83.9196 63.8211 83.7579 63.4603 83.9275 63.276C87.8788 58.8861 90.5511 53.6028 98.5197 52.8064C106.949 51.9547 115.588 56.2824 121.29 64.6851" fill="url(#paint2_linear_449_57)"/>
<path d="M78.4806 87.4966C76.8461 85.0883 75.7442 82.6244 74.545 80.1993C70.1593 71.3411 65.7303 62.4852 61.3635 53.5532C61.2152 53.2533 61.5339 53.1237 61.8709 53.3457C71.1181 59.2844 107.878 83.0698 115.495 88.1222C115.857 88.3609 116.018 88.7216 115.852 88.9111C111.892 93.2954 109.22 98.5788 101.259 99.3807C92.8218 100.227 84.1852 95.9043 78.4806 87.4966" fill="url(#paint3_linear_449_57)"/>
</g>
<defs>
<linearGradient id="paint0_linear_449_57" x1="140.287" y1="50.8951" x2="43.9287" y2="74.3254" gradientUnits="userSpaceOnUse">
<stop offset="0.0002" stop-color="#E7E8E9" stop-opacity="0.5"/>
<stop offset="0.4112" stop-color="#EDEDEE" stop-opacity="0.7056"/>
<stop offset="0.9426" stop-color="#FDFDFD" stop-opacity="0.9714"/>
<stop offset="0.9998" stop-color="white"/>
</linearGradient>
<linearGradient id="paint1_linear_449_57" x1="120.537" y1="137.673" x2="25.1709" y2="66.7964" gradientUnits="userSpaceOnUse">
<stop stop-color="#77F8DC"/>
<stop offset="0.119" stop-color="#7DF8D4"/>
<stop offset="0.2993" stop-color="#8CF9BF"/>
<stop offset="0.5185" stop-color="#A6FA9D"/>
<stop offset="0.7659" stop-color="#CAFC6E"/>
<stop offset="1" stop-color="#F0FE3B"/>
</linearGradient>
<linearGradient id="paint2_linear_449_57" x1="89.8634" y1="54.3951" x2="143.963" y2="90.5766" gradientUnits="userSpaceOnUse">
<stop offset="0.08056" stop-color="#F0FE3B"/>
<stop offset="0.19765" stop-color="#ECFD3F"/>
<stop offset="0.32644" stop-color="#E2FD4C"/>
<stop offset="0.46035" stop-color="#D2FC62"/>
<stop offset="0.516" stop-color="#CAFC6E"/>
<stop offset="0.61719" stop-color="#ABFA96"/>
<stop offset="0.72957" stop-color="#8FF9BB"/>
<stop offset="0.81998" stop-color="#7DF8D3"/>
<stop offset="0.87639" stop-color="#77F8DC"/>
</linearGradient>
<linearGradient id="paint3_linear_449_57" x1="55.8098" y1="61.6069" x2="109.915" y2="97.7922" gradientUnits="userSpaceOnUse">
<stop offset="0.08056" stop-color="#F0FE3B"/>
<stop offset="0.19765" stop-color="#ECFD3F"/>
<stop offset="0.32644" stop-color="#E2FD4C"/>
<stop offset="0.46035" stop-color="#D2FC62"/>
<stop offset="0.516" stop-color="#CAFC6E"/>
<stop offset="0.61719" stop-color="#ABFA96"/>
<stop offset="0.72957" stop-color="#8FF9BB"/>
<stop offset="0.81998" stop-color="#7DF8D3"/>
<stop offset="0.87639" stop-color="#77F8DC"/>
</linearGradient>
<clipPath id="clip0_449_57">
<rect width="149.941" height="109.957" fill="white" transform="translate(61.1279) rotate(33.7746)"/>
</clipPath>
</defs>
</svg>
