<?xml version="1.0" encoding="UTF-8"?><svg id="a" xmlns="http://www.w3.org/2000/svg" viewBox="0 0 784.37489 745.24611"><defs><style>.c{fill:#fff;}</style></defs><path class="c" d="m558.6034,191.7627c-7.44401-8.30595-18.07067-13.05197-29.22423-13.05197h-226.55145c-10.40802,0-20.38976,4.13457-27.74935,11.49416l-40.42624,40.42625c-7.35958,7.35958-11.49415,17.34132-11.49415,27.74933v218.38564c0,9.66654,3.56773,18.993,10.01929,26.19156l41.69773,46.52578c7.44401,8.30592,18.07065,13.05193,29.2242,13.05193h226.55151c10.408,0,20.38972-4.13456,27.7493-11.49412l40.4262-40.4261c7.35961-7.35959,11.49419-17.34134,11.49419-27.74938v-218.38563c0-9.66652-3.56772-18.99296-10.01926-26.19152l-41.69776-46.52594Zm-200.19823,56.17012c11.58116-2.01447,23.59095-1.49856,35.40436-1.50068,43.08268-.00785,86.16547-.23687,129.63127-.02012,1.44513.00721,2.19831,1.73117,1.20931,2.7849-26.86017,28.61814-134.44164,142.01451-157.36238,165.25013-1.07807,1.09288-2.85303,1.01477-3.84035-.16074-23.33357-27.78104-50.74301-51.7657-57.35602-89.69113-7.00256-40.15936,11.92473-69.6367,52.31381-76.66237Zm128.5494,245.38038c-11.58109,2.01456-23.5909,1.49856-35.40426,1.50068-43.0828.00785-86.16554.23696-129.63133.02013-1.44513-.00721-2.19831-1.73117-1.20931-2.7849,26.86016-28.61819,134.44166-142.01442,157.36232-165.25004,1.07807-1.09288,2.85303-1.01478,3.84035.16073,23.33368,27.78105,50.74301,51.76579,57.35609,89.69113,7.00258,40.15946-11.92471,69.63679-52.31386,76.66227Z"/></svg>