<?xml version="1.0" encoding="UTF-8"?><svg id="a" xmlns="http://www.w3.org/2000/svg" xmlns:xlink="http://www.w3.org/1999/xlink" viewBox="0 100 1300 500" fill="#fff"><path class="f" d="m1233.56837,315.75974c-6.90015-11.48999-16.33008-20.38-28.29004-26.67004-11.95996-6.28992-25.76001-9.42993-41.39014-9.42993-15.48975,0-29.25,3.14001-41.28979,9.42993-12.03003,6.29004-21.46021,15.18005-28.28003,26.67004-6.83008,11.5-10.23999,25.22998-10.23999,41.17004,0,15.80005,3.40991,29.43994,10.23999,40.93994,6.81982,11.5,16.25,20.39001,28.28003,26.68005,12.03979,6.27991,25.80005,9.43005,41.28979,9.43005,15.63013,0,29.43018-3.15015,41.39014-9.43005,11.95996-6.29004,21.38989-15.18005,28.29004-26.68005,6.8999-11.5,10.34985-25.13989,10.34985-40.93994,0-15.94006-3.44995-29.67004-10.34985-41.17004Zm-19.78003,72.68005c-5.06006,8.42993-11.88013,14.79993-20.46997,19.08997-8.58008,4.28992-18.40015,6.44006-29.43018,6.44006-10.73975,0-20.46997-2.15015-29.20996-6.44006-8.73999-4.29004-15.63989-10.66003-20.69995-19.08997-5.06006-8.43005-7.59009-18.93005-7.59009-31.51001,0-12.57007,2.53003-23.07007,7.59009-31.51001,5.06006-8.43005,11.95996-14.83008,20.69995-19.19995,8.73999-4.37012,18.47021-6.55005,29.20996-6.55005,11.03003,0,20.8501,2.17993,29.43018,6.55005,8.58984,4.36987,15.40991,10.7699,20.46997,19.19995,5.06006,8.43994,7.59009,18.93994,7.59009,31.51001,0,12.57996-2.53003,23.07996-7.59009,31.51001Zm-177.54004-106.25v149.26001h22.08008v-149.26001h-22.08008Zm-44.84985,0l-46.68018,122.92993-46.68994-122.92993h-24.1499l58.18994,149.26001h25.29004l57.72998-149.26001h-23.68994Zm-151.55005,0l-46.69019,122.92993-46.68994-122.92993h-24.1499l58.18994,149.26001h25.30005l57.71997-149.26001h-23.67993Zm-258.62012,91.06995c-2.68994-5.05994-6.32983-9.20007-10.92993-12.42004-4.6001-3.21997-9.77002-5.8999-15.52002-8.04993-5.75-2.14001-11.69995-3.91003-17.83008-5.29004-8.11987-2.14001-14.90991-4.14001-20.34985-5.97998-5.44019-1.83997-9.77002-3.75-12.98999-5.75-3.22021-1.98999-5.52002-4.17004-6.90015-6.54993-1.37988-2.38013-2.07007-5.18005-2.07007-8.39014,0-7.36987,2.99023-12.77002,8.97021-16.21997,5.97998-3.44995,13.17993-5.16992,21.60986-5.16992,9.82007,0,17.79004,2.26001,23.91992,6.78003,6.13013,4.5199,9.43018,12,9.89014,22.41992h20.69995c.31006-14.87-4.09985-26.75-13.21997-35.64001-9.12988-8.89001-22.58008-13.33997-40.37012-13.33997-11.48975,0-21.27002,1.88-29.31982,5.63-8.05005,3.76001-14.14014,8.73999-18.28003,14.94995-4.13989,6.21008-6.20996,13.06995-6.20996,20.58997,0,7.05005,1.63989,13.07007,4.93994,18.05005,3.30005,4.97998,7.66992,9.23999,13.11011,12.76001,5.43994,3.53003,11.41992,6.47998,17.93994,8.85999,6.52002,2.37,13.1499,4.41003,19.8999,6.08997,7.66016,1.84009,14.1001,3.71997,19.31006,5.64014,5.20996,1.90991,9.12012,4.28992,11.72998,7.12988,2.60986,2.83008,3.90991,6.63,3.90991,11.38s-1.18994,8.84998-3.55981,12.30005c-2.38013,3.44995-5.9502,6.18005-10.7002,8.17004-4.75,1.98999-10.72998,2.98999-17.93994,2.98999-8.28003,0-15.52002-1.38013-21.72998-4.14014-6.20996-2.75989-11.12012-6.55994-14.71997-11.38989-3.6001-4.83008-5.63013-10.22998-6.09009-16.20996h-21.15991c-.45996,2.76001-.18994,6.28992.80005,10.57996,1,4.28992,2.91992,8.81995,5.75,13.56995,2.83984,4.75,6.75,9.19995,11.72998,13.34009,4.97998,4.13989,11.18994,7.51001,18.62988,10.11987,7.43994,2.6001,16.22021,3.91016,26.33008,3.91016,12.72998,0,23.12012-1.88013,31.16992-5.64014,8.05005-3.75,13.98999-8.80994,17.82007-15.17993,3.83008-6.35999,5.75-13.44995,5.75-21.27002,0-7.35999-1.34009-13.57007-4.02002-18.63Zm101.98999-91.06995h-23.44995l-60.94995,149.26001h23.68994l14.6001-37.03003h68.93994l14.65991,37.03003h23.92017l-61.41016-149.26001Zm-38.31982,92.44995l26.59985-67.48999,26.71997,67.48999h-53.31982Z"/><path class="e" d="m344.33633,224.08895c-5.6178-6.26828-13.63746-9.84998-22.05476-9.84998h-170.97239c-7.85466,0-15.38762,3.12025-20.9417,8.67434l-30.50861,30.50862c-5.55408,5.55408-8.67433,13.08703-8.67433,20.94169v164.80987c0,7.29508,2.69247,14.33351,7.5613,19.76608l31.46818,35.11178c5.61779,6.26826,13.63744,9.84995,22.05473,9.84995h170.97244c7.85465,0,15.38759-3.12024,20.94167-8.67431l30.50859-30.50851c5.5541-5.55408,8.67436-13.08705,8.67436-20.94172v-164.80987c0-7.29507-2.69246-14.33349-7.56127-19.76605l-31.4682-35.1119Zm-151.08432,42.3901c8.74-1.52026,17.80347-1.13092,26.71873-1.13252,32.51336-.00593,65.02681-.17876,97.82929-.01518,1.0906.00544,1.65901,1.30647.91264,2.10169-20.27066,21.59736-101.45956,107.1746-118.75723,124.70991-.81359.82477-2.15311.76582-2.89821-.12131-17.60923-20.96562-38.29441-39.0662-43.28507-67.68753-5.28465-30.30721,8.99928-52.55298,39.47985-57.85506Zm97.01283,185.18209c-8.73994,1.52034-17.80343,1.13092-26.71866,1.13252-32.51345.00593-65.02685.17883-97.82934.01519-1.0906-.00544-1.659-1.30647-.91264-2.10169,20.27065-21.59739,101.45957-107.17453,118.75719-124.70984.81359-.82477,2.1531-.76583,2.89821.1213,17.60931,20.96562,38.29441,39.06628,43.28512,67.68753,5.28466,30.30728-8.99926,52.55305-39.47989,57.85499Z"/></svg>