<?xml version="1.0" encoding="utf-8"?>

<svg version="1.1" id="Layer_1" xmlns="http://www.w3.org/2000/svg" xmlns:xlink="http://www.w3.org/1999/xlink" 
	 viewBox="0 0 64 64" style="enable-background:new 0 0 64 64;" xml:space="preserve">

<path  d="M53.5,0h-43L0,10.6v41.6L10.5,64h43L64,53.4V11.8L53.5,0z M22.4,11.5c1.9-0.3,3.9-0.2,5.9-0.3
	c7.3,0,14.7,0,22.1,0c-3.7,4-23.8,25.3-26.8,28.4c-3.9-4.8-8.7-8.8-9.8-15.3C12.6,17.6,15.7,12.7,22.4,11.5L22.4,11.5z M43.6,52.5
	c-1.9,0.3-3.9,0.2-5.9,0.3c-7.3,0-14.7,0-22.1,0c3.7-4,23.8-25.3,26.8-28.4c3.9,4.8,8.7,8.8,9.8,15.3C53.4,46.4,50.3,51.3,43.6,52.5
	L43.6,52.5z"/>
</svg>
