<?xml version="1.0" encoding="utf-8"?>

<svg version="1.1" id="Layer_1" xmlns="http://www.w3.org/2000/svg" xmlns:xlink="http://www.w3.org/1999/xlink"
	 viewBox="0 0 237 64" style="enable-background:new 0 0 237 64;" xml:space="preserve">

<path  d="M53.5,0h-43L0,10.6v41.6L10.5,64h43L64,53.4V11.8L53.5,0z M22.4,11.5c1.9-0.3,3.9-0.2,5.9-0.3
	c7.3,0,14.7,0,22.1,0c-3.7,4-23.8,25.3-26.8,28.4c-3.9-4.8-8.7-8.8-9.8-15.3C12.6,17.6,15.7,12.7,22.4,11.5L22.4,11.5z M43.6,52.5
	c-1.9,0.3-3.9,0.2-5.9,0.3c-7.3,0-14.7,0-22.1,0c3.7-4,23.8-25.3,26.8-28.4c3.9,4.8,8.7,8.8,9.8,15.3C53.4,46.4,50.3,51.3,43.6,52.5
	L43.6,52.5z"/>
<g>
	<path  d="M101.2,29.6c-0.8-0.6-1.8-1-2.9-1.4c-1.1-0.4-2.3-0.7-3.6-0.9c-1.5-0.3-2.8-0.6-3.8-0.9
		c-1-0.3-1.8-0.6-2.4-0.9c-0.6-0.3-1-0.7-1.3-1c-0.2-0.4-0.4-0.9-0.4-1.4c0-1.3,0.5-2.2,1.6-2.7s2.4-0.8,4-0.8
		c1.8,0,3.2,0.4,4.4,1.1c1.1,0.7,1.8,2,1.8,3.6h4.4c0.1-2.7-0.8-4.8-2.6-6.3c-1.8-1.6-4.4-2.4-7.8-2.4c-2.2,0-4.1,0.3-5.6,1
		s-2.7,1.5-3.5,2.6c-0.8,1.1-1.2,2.4-1.2,3.8c0,1.2,0.3,2.3,0.8,3.2c0.6,0.9,1.3,1.6,2.3,2.2c1,0.6,2.1,1.1,3.3,1.5
		c1.2,0.4,2.5,0.7,3.8,1c1.6,0.3,2.9,0.6,3.9,0.9c1,0.3,1.8,0.7,2.2,1.1c0.5,0.4,0.8,1,0.8,1.8c0,0.8-0.2,1.5-0.6,2
		c-0.4,0.6-1,1-1.9,1.3s-1.9,0.5-3.2,0.5c-1.5,0-2.8-0.2-3.9-0.6c-1.1-0.5-2-1.1-2.7-1.8c-0.7-0.8-1.1-1.7-1.2-2.7h-4.4
		c-0.1,0.6,0,1.2,0.2,2c0.2,0.8,0.6,1.6,1.2,2.4c0.6,0.8,1.4,1.6,2.3,2.3c1,0.7,2.1,1.3,3.5,1.7c1.4,0.4,3,0.6,4.8,0.6
		c2.4,0,4.4-0.3,5.9-1c1.5-0.7,2.7-1.6,3.4-2.7c0.7-1.1,1.1-2.5,1.1-3.9c0-1.3-0.2-2.4-0.7-3.2C102.7,30.8,102.1,30.1,101.2,29.6z"
		/>
	<path  d="M117.5,16.1L106.2,42h4.9l2.6-6.1h12.7l2.6,6.1h4.9l-11.4-25.9H117.5z M115.3,32L120,21l4.7,11.1H115.3z"/>
	<path  d="M231.6,21.9c-1.2-2-3-3.6-5.2-4.6c-2.2-1.1-4.9-1.6-8-1.6c-3,0-5.7,0.5-8,1.6c-2.2,1.1-4,2.6-5.2,4.6
		c-1.2,2-1.8,4.4-1.8,7.2c0,2.8,0.6,5.2,1.8,7.2c1.3,2,3,3.5,5.2,4.6c2.3,1.1,4.9,1.6,8,1.6c3.1,0,5.7-0.5,8-1.6
		c2.2-1.1,4-2.6,5.2-4.6c1.3-2,1.9-4.4,1.9-7.2C233.4,26.3,232.8,23.9,231.6,21.9z M227.4,34.3c-0.9,1.4-2.1,2.4-3.6,3.1
		s-3.3,1-5.4,1c-2,0-3.8-0.3-5.4-1s-2.8-1.7-3.7-3.1c-0.9-1.4-1.4-3.2-1.4-5.3c0-2.1,0.5-3.8,1.4-5.2c0.9-1.4,2.1-2.5,3.7-3.2
		c1.6-0.7,3.4-1.1,5.4-1.1c2,0,3.8,0.4,5.4,1.1c1.5,0.7,2.8,1.7,3.6,3.2c0.9,1.4,1.4,3.1,1.4,5.2C228.8,31.1,228.3,32.9,227.4,34.3z
		"/>
	<rect x="192.8" y="16.1"  width="4.6" height="25.9"/>
	<polygon  points="174,37.4 165.5,16.1 160.6,16.1 171.3,42 176.7,42 187.4,16.1 182.5,16.1 	"/>
	<polygon  points="144.8,37.4 136.3,16.1 131.4,16.1 142.1,42 147.5,42 158.2,16.1 153.3,16.1 	"/>
</g>
</svg>
