<svg width="176" height="74" viewBox="0 0 176 74" fill="none"  xmlns="http://www.w3.org/2000/svg" xmlns:xlink="http://www.w3.org/1999/xlink">

<path d="M52.0667 4.03638L35.2333 17.5246L39.5 19.7446L26.8333 43.7609L24.9 18.4664H14.2L19.5333 56.98C18.9 58.6618 18.2 59.8727 17.5 60.68C16.8667 61.42 16.0333 61.9582 15.1 62.2609C14.8 62.3618 14.5 62.4291 14.2 62.4627C11.1333 62.4627 8.33332 62.4964 8.33332 62.4964L3.79999 70.3C3.79999 70.3 4.13332 70.3673 14.2 70.3673C15.5333 70.3337 16.8333 70.1655 18.1 69.8291C19.5667 69.4591 20.9 68.7527 22 67.7436C23.1333 66.6673 24.3667 65.12 25.6667 63.0682C26.9667 61.0164 28.5 58.2582 30.3667 54.8946L47.6 23.9827L52.1 26.3373L52.0667 4.03638Z" stroke="#00FFFF" stroke-width="2" stroke-miterlimit="10"/>

<path d="M70.7333 8.6109L82 38.48H82.1333L88.1 8.6109H96.5L87.6667 50.5891H78.5333L67.1 21.1236H66.9667L61 50.5891H52.5L61.2333 8.6109H70.7333Z" stroke="#00FFFF" stroke-width="2" stroke-miterlimit="10"/>

<path d="M131.4 16.3809H111.033L108.967 26.1018H126.8L125.3 33.2663H107.533L103.867 50.6227H94.7667L103.5 8.64453H133.1L131.4 16.3809Z" stroke="#00FFFF" stroke-width="2" stroke-miterlimit="10"/>

<path d="M136.167 16.3809L137.8 8.6109H172.533L170.9 16.3809H158.433L151.333 50.6227H142.133L149.233 16.3809H136.167Z" stroke="#00FFFF" stroke-width="2" stroke-miterlimit="10"/>

</svg>
